<mxfile host="app.diagrams.net" agent="Mozilla/5.0 (Macintosh; Intel Mac OS X 10_15_7) AppleWebKit/537.36 (KHTML, like Gecko) Chrome/132.0.0.0 Safari/537.36" version="26.0.13">
  <diagram name="Page-1" id="eX6GLdDtJ_vGvcwyzw5L">
    <mxGraphModel dx="954" dy="579" grid="0" gridSize="10" guides="1" tooltips="1" connect="1" arrows="1" fold="1" page="0" pageScale="1" pageWidth="850" pageHeight="1100" math="0" shadow="0">
      <root>
        <mxCell id="0" />
        <mxCell id="1" parent="0" />
        <mxCell id="PuejTA-qi7Pjz7Dd6381-2" value="" style="shape=image;verticalLabelPosition=bottom;labelBackgroundColor=default;verticalAlign=top;aspect=fixed;imageAspect=0;image=data:image/png,iVBORw0KGgoAAAANSUhEUgAAAv0AAAE1CAYAAAB0lV9QAAAYTGlDQ1BJQ0MgUHJvZmlsZQAAWIWVeQk4lV3X/77PfI75HPM8z2Se53meZxKO6ZjiGEOJJGOiQkglGSuVQiUiDUoZekiSSIZKoaJC9d2Gep73ef/X/7u+fV373r+z9tprrb3WHu51bgC4qnwjI8MQjACER8RQHUwN+N3cPfixbwEEMIABCAK8Lzk6Ut/OzgrA5Xf7n2VlGOaGy1OZDVn/3f//LUz+AdFkACA7GPv5R5PDYXwVAFQ5OZIaAwBmgy4UHxO5geEKmKmwgTDO3MBBW7h8A/tt4UubPE4OhjDuBgBH6+tLDQKAvh+m88eRg2AZ9ItwHzHCnxIBAAsKxjrh4bv9AeAygnnEYZ5IGG/MQ83vH3KC/kOm3x+Zvr5Bf/DWXDYLzogSHRnmu+f/6I7/vYSHxf7WIQpX2mCqmcPGnGG/jYTuttzAtDCej/CzsYUxEcbfKP6b/DBGEIJjzZy3+BHc5GhD2GeAFcZy/r5GljDmhrFJRJiN1TbdL5BiYg5jeIUgEigx5k4wZodxZkC0seM2z2nqbodtXYjmQKqh/jb9gS91U++GrvHYUGf9bfmfggPMt+Uj6RODnVxhTICxcBzFxQbG9DCWjQ51tNzm0UoMNrT5zUONddiwXxjGDgERpgZb8pFxgVQTh23+7PDo3/NFng6mmNts4ysxwU5mW/5BdpN9N+2H54LsD4jQd/4tJyDazer3XPwDjIy35o6cC4hwdtyW8y0yxsBhayyKEBlmt82PEgwIM92gC8JYKTrOcXssyiUGXpBb8lGBkTF2Tlt2ohJDfC3stuxBHQFWwBAYAX4QC1c/sBuEAMqT+ZZ5+NdWjwnwBVQQBAKAzDbl9wjXzZ4I+OkIEsEHGAWA6D/jDDZ7A0AcTP/xh7r1lAGBm71xmyNCwQyMw4ElCIN/x26OivijzQW8gSmU/9LuC1cybG8YXDf6/9/039S/KfowxWqbEvtbIz/Db06MMcYIY4YxwUigOFE6KE2UFfzUg6sCSg2l/nsef/OjZ9AD6NfoIfQE+vkuShr1X1ZagwlYvsm2L/z+6QuUKCxTGWWA0oalw5JRrChOIINSgvXoo3Rhzcow1XDb7g2v8P9L9n/M4B/R2ObDy+EReDa8Hl783yPpJemV/0jZ8PU//bNlq98ffxv+6fm3fsN/eN8fbi3/zYnMRDYh7yM7kT3INmQL4Ed2IFuRvchbG/jP6nqzubp+a3PYtCcUlkP5L32/I7vhyWi5Brm3cutbfTEBCRtnNDDcHbmHSgkKjuHXh2+EAH7zCLKsNL+CnIIyABv3y9bx9dlh896AWPv+ppEPAqAKn8/41b9p4Z8BuATvfX7rv2ki3vD2wwBQO0OOpcZt0VAbDzR8SjDAO40D8AIhIA7PRwGoAE2gB4yBBbAFTsAdeMPWB8PrnAriQTJIBRkgBxwBx0EpOAXOglpwAVwBLaANdIJ74BHoB0PgBbx6psF7sAhWwBoEQViIDiJBHBAfJAJJQQqQGqQDGUNWkAPkDvlAQVAEFAslQwegHKgQKoXOQHXQZeg61An1QAPQc2gSegt9glYRSAQtghnBgxBF7ECoIfQRlggnxE5EECIKkYhIRxxGlCAqEecRzYhOxCPEEGIC8R6xjARIGiQrUgApg1RDGiJtkR7IQCQVuQ+ZjSxCViIvIm/AcX6KnEDOI7+jMCgSih8lA69gM5QzioyKQu1D5aJKUbWoZlQ36ilqErWI+ommQ3OjpdAaaHO0GzoIHY/OQBehq9HX0HfhvTSNXsFgMKwYMYwqvBfdMSGYJEwu5iSmEXMbM4CZwixjsVgOrBRWG2uL9cXGYDOwJ7DnsR3YQew09huOBseHU8CZ4DxwEbg0XBGuHteOG8TN4tbwjHgRvAbeFu+P34PPx1fhb+D78NP4NQITQYygTXAihBBSCSWEi4S7hDHCZxoaGkEadRp7GgrNfpoSmks0D2gmab7TEmklaQ1pvWhjaQ/T1tDepn1O+5mOjk6UTo/Ogy6G7jBdHd0dunG6b/Qkell6c3p/+hT6Mvpm+kH6jwx4BhEGfQZvhkSGIoYmhj6GeUY8oyijIaMv4z7GMsbrjM8Yl5lITPJMtkzhTLlM9Uw9THNELFGUaEz0J6YTzxLvEKdISJIQyZBEJh0gVZHukqaZMcxizObMIcw5zBeYnzAvshBZlFhcWBJYylhusUywIllFWc1Zw1jzWa+wDrOusvGw6bMFsGWxXWQbZPvKzsWuxx7Ans3eyD7EvsrBz2HMEcpRwNHC8ZITxSnJac8Zz1nBeZdznouZS5OLzJXNdYVrlBvBLcntwJ3EfZa7l3uZh5fHlCeS5wTPHZ55XlZePd4Q3mO87bxv+Uh8OnwUvmN8HXzv+Fn49fnD+Ev4u/kXBbgFzARiBc4IPBFYExQTdBZME2wUfClEEFITChQ6JtQltCjMJ2wtnCzcIDwqghdREwkWKRa5L/JVVEzUVfSQaIvonBi7mLlYoliD2Jg4nbiueJR4pfhfEhgJNYlQiZMS/ZIISWXJYMkyyT4phJSKFEXqpNSANFpaXTpCulL6mQytjL5MnEyDzKQsq6yVbJpsi+zHHcI7PHYU7Li/46ecslyYXJXcC3mivIV8mvwN+U8KkgpkhTKFvxTpFE0UUxRbFZeUpJQClCqURpRJytbKh5S7lH+oqKpQVS6qvFUVVvVRLVd9psasZqeWq/ZAHa1uoJ6i3qb+XUNFI0bjisaCpoxmqGa95pyWmFaAVpXWlLagtq/2Ge0JHX4dH53TOhO6Arq+upW6r/WE9Pz1qvVm9SX0Q/TP6380kDOgGlwz+GqoYbjX8LYR0sjUKNvoiTHR2Nm41HjcRNAkyKTBZNFU2TTJ9LYZ2szSrMDsmTmPOdm8znzRQtVir0W3Ja2lo2Wp5WsrSSuq1Q1rhLWF9VHrMRsRmwibFltga2571PalnZhdlN1Ne4y9nX2Z/YyDvEOyw31HkuMux3rHFScDp3ynF87izrHOXS4MLl4udS5fXY1cC10n3Ha47XV75M7pTnFv9cB6uHhUeyx7Gnse95z2UvbK8BreKbYzYWePN6d3mPetXQy7fHc1+aB9XH3qfdZ9bX0rfZf9zP3K/RbJhuRi8nt/Pf9j/m8DtAMKA2YDtQMLA+eCtIOOBr0N1g0uCp6nGFJKKUshZiGnQr6G2obWhP4Kcw1rDMeF+4RfjyBGhEZ07+bdnbB7IFIqMiNyIkoj6njUItWSWh0NRe+Mbo1hhl/ke2PFYw/GTsbpxJXFfYt3iW9KYEqISOjdI7kna89sokniuSRUEjmpK1kgOTV5cq/+3jP7oH1++7pShFLSU6b3m+6vTSWkhqY+TpNLK0z7csD1wI10nvT96VMHTQ82ZNBnUDOeHdI8dCoTlUnJfJKlmHUi62e2f/bDHLmcopz1XHLuwzz5vJK8X4cDDz/JV8mvOII5EnFkuEC3oLaQqTCxcOqo9dHmY/zHso99Ob7reE+RUtGpYkJxbPFEiVVJ6wnhE0dOrJcGlw6VGZQ1lnOXZ5V/Pel/crBCr+LiKZ5TOadWT1NOj5wxPdNcKVpZdBZzNu7sTJVL1f1zaufqqjmrc6p/1ETUTNQ61HbXqdbV1XPX5zcgGmIb3p73Ot9/wehC60WZi2caWRtzLoFLsZfeXfa5PHzF8kpXk1rTxasiV8uvka5lN0PNe5oXW4JbJlrdWweuW1zvuqF549pN2Zs1bQJtZbdYbuW3E9rT2391JHYs3468Pd8Z1DnVtavrxR23O39123c/uWt598E9k3t37uvf73ig/aCtR6Pn+kO1hy2PVB419yr3Xnus/PjaE5UnzX2qfa396v03BrQG2gd1BzufGj2995f5X4+GbIYGhp2HR555PZsY8R+Zex72fGk0bnTtxf4x9Fj2S8aXRePc45WvJF41TqhM3Jo0mux97fj6xRR56v2b6Dfr0+kzdDNFs3yzdXMKc21vTd72v/N8N/0+8v3afMYHpg/lH8U/Xl3QW+hddFucXqIu/fqU+5njc80XpS9dy3bL4yvhK2tfs79xfKv9rvb9/qrr6uxa/Dp2veSHxI8bPy1/jv0K//Ur0pfqu/kqgIQrIjAQgE81ANC5A0CC8zOC51b+t12Q8MsHAm5dIFnoPSIdvlH7UBloEwwS8whbgovAWxEkaLA087SDdC30NQzVjI1MrcQu0iPmfpYR1ldsc+zvOZY4V7l+8CB4sXwEfjoBoiBRiFWYXYRNlF2MW5xHgl+SX0pQWlhGVFZsh7ScnLyigoqihpKusrGKuaq5mom6iYaJpqGWvraWjoaukp6svqgBjyGzEcHol/FnkxnT52a95m0WtZZHrVKsQ2zcbI3tlO3FHLgcGZ1wzkgXyBXhhnLHezB6cngJ75Txltgl7MPny+nHQib5EwNIgaxBXMGCFOkQ1VCTMJdwSkTy7sLIqqjT1JLogpjc2Ky47PjDCSV7ahPbk17sBfukU3btP5H64oBg+u6DnYcwmUJZCtkGOY65gXmJhwvya4/cLhgtXD7GdFymyKI4sOTAiYrS62WD5W9OLp/CnuY4I1mpdda2yu9cTPXBmqLa2rrr9Q8bRs+/u/C9EXeJ7bL4Fd0m96tR17KaT7Y0tnZc77nRd7O/7dGtrvbLHWW3Uzp3dWncId6Z6b5+t/5e+f2cBwk9fg/NH8n20vfOP777pLwvst9ggDQwNXjlaepf9kMiw6jht896RxqfF47GvHAZU3vJ+XJ9fPxV58S5yazXu6ec32hNC8OrbGX2r7mrb4vfpbwPmyd/IH+MXMhZvLa08Fnvy5kV0teS71KrT9ZTfmr8+vWP+Csg51CFaEsMC+YltgmXiw8iGNFI0jLQrtPN0o8wjDC+YnpD/ED6zLzC8oN1je0H+0+OH5wrXJ+5F3hmeMf4BvnvClwXrBbKEQ4TsRKVFMOLvRPvkaiTzJaiSFvKyMjSyS7sGJC7Kl+skKxIVrJXNlBRUBVQI6r9Uv+oMabZo9WsXamTqxuv56NvYaBgyGmEMHpr/MTkkmmBWbS5k4WKJZvlmtUr6zs29bYFdkn2gQ6OjvpO8s4CLiRXrOuq23v3MY9ez1tejTtPex/ddcgn2ZfqRyH7+nsEOAXaB9kEW1IsQ8xCNcNkwwUiWHbTRCIi16O+Ub9H/4hFxxHjhRI09jglRicVJbftnUmh2c+XKpOmfcAm3e9gfEbeoerMjqzR7K+5zHkKh+3zI47kFTQUPjj65tivIs5i5RK7E6GlB8tOlbee7K+YO/XzDHOlxFntKrtz5OrYmkO1JfA519uwcIF4UbHR8VLU5fwrDU3dV8eufWrBtHJcl7yhcdOize1WYHtMR8rt1M4DXQfvZHQfupt5L/t+7oO8nryHeY/yenMf5zzJ6jvUnz6QOrj3adxfUUO7hyOfxYwkPT84evRF5VjTy3vjz199mASviVOCb+SndWbMZ/3mTr/98F55PulD+8efi5pLcZ8ufn6zzL5i+TXlW9P32TXudYcf2T+7t+NvjNBH7kB+RHWiD2EcseLYJdx1fAbBgYabZpz2LF04vToDgqGTMZ3JgshA7CcdYbZlYWB5zJrNZsIOsbdyRHAKcY5w5XDrcH/gKeM14/3CV8Fvxv9R4JighuCY0F5hfuF2EW+RddESMSWxXvEA8XWJo5JSkh1SjlIz0qkyIjIjsrk7DHZ8kauR91SgU+hQjFQSUBpUTlNRUJlUzVfTVvugXqZhrrGseVbLXuundoOOuy5W95oeWZ+of9sg0pDfsN8ozVjJeNak1NQWfu+4aR5lIWXxxrLCysOa1fqpTaGtgx3Jbtj+hIO3o7DjO6fLzokuxq4MrqNu1e7RHgaetJ7DXqd2BnsreK/tuutT4OvlJ+G3Qu72PxrgG6gYhAoaDq6npIQ4hUqHocNehd+IKNkdH+kapUHljUZFz8cMxXbGNcZXJOTvSU2MTwpN9t+7c59bitN+h1T7NPsDDulOB90zdh4KyAzNis5OycnMLcyrOFyX33zkTsFA4fjRj8dRRRLFXiVHTtwtXSuXPelXcfzUw9PrlQpnA6pKz/XVoGq16uLrGxveX5C8GNJYf2nhikrT/qu9zRwtYa3dN/huprS9brfqaOuU7zrfLXX38n2DB6MPE3r5Hvf35Q04PRUdAsPvR96MvnsJXolM7pqqn0HPJb4HH6oWyZ91V9S+O6+XbMR/63/AjYJRAeD4IQA2/udxqAMg9zwAYnsAYINzTzs6AJzUAULAFEDLXQCy0P5zf0Bw4kkAJMADJIEaMIPzyzA4pywGjaAHTIEfEDukDDlC0dBxqBV6Ced80ggXRCqiETGOZEAaIOORF5AzcJbmhSpDvYAzMR/0OfQHjAomFfMEy4MNx3bgSDgKrhPPiY/FDxIUCcWEdRoyzWNaddpaOna6XHoEfRL9V4ZYhhXGRCaIKZvISqwiqZH6mUNYsCznWI1ZZ9gy2aXY+zliODk427n8uWm4r/B48CJ5L/B5whnBgEC+oK0Qk9BT4WIRT1EB0Rmx8+LREhqSkGSPVIG0J7w6F2UHd7TJVcsXKuxTpCg5Kmuo8KlCqhNqberHNEI0tbXotca063RidHX1cHoD+k0GVw1bjG4Yt5vcMe0x6zMfthi3nLVasl6zxdmx2os6qDlaOZGdk11KXNvd5jxInvpekTsrvYd8CL76fknkVv+vgWpBScGdIYRQ57Cq8OXdZpEVUQvRWjE5sePxSglH9iwluSbf26ed0p5qmTaVnpWhnQmyBnIu5ZXnFxaYHUUeu1tUUBJQalguXSF4WqRSqcqmOqq2rP7RBdCoetmmyf1acEvy9eM3r9wa7Fjp4u02uxfz4PTDJ70/+mQGdj49PHR7hDRKHrswPj/JPaU2rTcr/5b+3bP5wx93LHQumX3q/qKwXLqy+s3++7nVpXWNHyk/b2+eH1vxJ8LxlwCqwAS4ghCwDxwDDaAbjINvEAmSg2ygCOgI1AQ9RwCEBJzlpyEuI17DebwVMh3ZgVxDaaMOoHrR7OhAdDMGj/HGNGMZsWHYRzhpXD5uGe+Fv0eQJRTTIGmiaCZpnWkf0hnStdNr0d+Cs9gHjPaM43Ce+ot4jCRLeswcAWeeray+bDRsreyBHKwc9zn3cElzTXIX89jy4ni7+PbzGwhgBB4LFgn5CssKr4v0ilaIRYkbS3BJfJJ8KHVWOkXGU1Zzh4Qcuzxefl1hQXFK6ZnyQ5WbqufVStUPaVA1PbUMtSV1GHWWdUf12vUbDS4bNhm1GN806TDtNnto3m/xzPKV1az1ks2aHc6e1UHMUd3J2tnfZa9rqdt191GPH16COy28Y3ad9unzg8gq/hEBdYEzwaKUkJDLoavhphFFu+eitKh7oztiUXFW8cUJM4nqSYeTZ/cZp9Sm0qftOTALnyf9mRZZ93PMcnsPO+RPFKQc5T12uyiwhP5Ea5n/SVLFvdN7K1XOfjp3uSa2TqsBc37o4rlLyVe8rqo007dMXb9688Atmw7225Nddd3Ue1oPsD3Dj+oe7+/zGtB5KjLENPxgxPn59IvEl8zjVyacJtenaqfdZxnmet5lzlt+ZFx4tnT6c8iyylfEt77VsvWgn4rb8UcCDKDdPAHEgQq8AtxAODgIToGbYBTe/4KQBRQLVUHDCBqEEbzzu5A4pD3yFPITygJVg8ajqehXGCd4t9tgh3Bk3Hd8EUGdME1zglaPdowuiZ6fvochnlGScYrpFNGPJEH6ynyfpYI1ic2TXY9DipOdi4Ybwb3Os8q7zg8EsPAbKI+wrIi2qINYkPh+iROS1+C8e1GWcYeCnKv8PoUqxT6lNRUJVXe1QvVBTWYtd+0qnQU9bf08g1dGisY5JpNmWuZFFp+s7Kwv2NLahdk/dJR0ynF+52rhVu+B96R43fcW3XXQZ9rPkFwdgAz0D7pDEQ3JCJ0Lt4pojGSJSqBOxBjFXoxnT9i3532SG7xPVVJqUjnSDqejDiZnfMr0yLqc/SvXKa/m8OoRx4KLRwnHKMfvFUuV5J5YKHMtv1UheqoAPvv9z/ae06yuqWWqS6yfOe94oa1R9FL+5ZUm76v3mmVajrQu3rC/efEWoT2wo72T2BVwp/ku6p7d/bIHUw8lHlF6qx9P9nH22w8cHLz69PUQYVjumcMI9fnh0boXd8aGXs6ML71an4ReY6cwbzDTYHp15sPs+Nzjt63vKt9nzkd8sP4otYBdeLXYupT1yeOzxOdPX9qW01aMvmK+dn9L+a75fWn13JrHOmG9+Qf5J93PK7/cN+K/9e1o8/5gBOA01wYauLT8X99ttr4r/SM3+XcLNm+XjbJxu2y28E0D/gcJX8/Wb96NJQAAAFZlWElmTU0AKgAAAAgAAYdpAAQAAAABAAAAGgAAAAAAA5KGAAcAAAASAAAARKACAAQAAAABAAAC/aADAAQAAAABAAABNQAAAABBU0NJSQAAAFNjcmVlbnNob3Q6Go99AAAB1mlUWHRYTUw6Y29tLmFkb2JlLnhtcAAAAAAAPHg6eG1wbWV0YSB4bWxuczp4PSJhZG9iZTpuczptZXRhLyIgeDp4bXB0az0iWE1QIENvcmUgNi4wLjAiPgogICA8cmRmOlJERiB4bWxuczpyZGY9Imh0dHA6Ly93d3cudzMub3JnLzE5OTkvMDIvMjItcmRmLXN5bnRheC1ucyMiPgogICAgICA8cmRmOkRlc2NyaXB0aW9uIHJkZjphYm91dD0iIgogICAgICAgICAgICB4bWxuczpleGlmPSJodHRwOi8vbnMuYWRvYmUuY29tL2V4aWYvMS4wLyI+CiAgICAgICAgIDxleGlmOlBpeGVsWURpbWVuc2lvbj4zMDk8L2V4aWY6UGl4ZWxZRGltZW5zaW9uPgogICAgICAgICA8ZXhpZjpQaXhlbFhEaW1lbnNpb24+NzY1PC9leGlmOlBpeGVsWERpbWVuc2lvbj4KICAgICAgICAgPGV4aWY6VXNlckNvbW1lbnQ+U2NyZWVuc2hvdDwvZXhpZjpVc2VyQ29tbWVudD4KICAgICAgPC9yZGY6RGVzY3JpcHRpb24+CiAgIDwvcmRmOlJERj4KPC94OnhtcG1ldGE+CgXmSw8AAEAASURBVHgB7J0HXFTHE8d/ByogiAoCgij23nvvvbfEbmzRJEajxsTeYkliNMYSY4mJf2tii7333nuvIKIIgiBd5e6/s+cdd3BwdxRpM5/P87239e33gczum51RqISAhQkwASbABJgAE2ACTIAJMIEMS8Aiw46MB8YEmAATYAJMgAkwASbABJiAJMBKP/8gMAEmwASYABNgAkyACTCBDE6Alf4M/oJ5eEyACTABJsAEmAATYAJMgJV+/hlgAkyACTABJsAEmAATYAIZnECWDD4+Hh4TYAJMgAkwASbABDI1gTv3HmHH3kN6DDq1bY5iRQrqpZlzs3HrHpAvmE87tTZabe/B4wh+E4JundsYLcsFUo4Ar/SnHFtumQkwASbABJgAE2ACqU7giZc3lvy1Hg8eeeHpsxfyiIyMStJzHTx6CgeOnDKpjVNnL2HPgWMmleVCKUeAV/pTji23zASYABNgAkyACTCBNEPgl+ljkStnDu3zbN11ACvXbkFIaCiGft4Hnds1x7mL1/DHirXw9nmBz3p0Rt8enUBfChYuW4ULl6+jS/uW+G74IG0bjz298fV3U1GqeFEcP30eHds0w4TRX+HhYy/MXbgCd+4/RPbsNnDO4wilUoVlK//BP5t3wD6HHX6c+h18X/pj7qIVmP3DWPy7ZRf8/F9h8a8/wNKC16W1kJPpgokmE0huhgkwASbABJgAE2ACaZlAs459Ua1RJ7To1A+RUVHYsGU3PuvZCfVrV8eUH+cjOjoaI8fPRA47W/Tu1hG/LPwT/q8C8cuC5bCxthaK+RiptB88dlo7zKiot7h7/zFy5LDFwD6fYMXqjfB58RILl67CC6HQjxv1pcynCtdv3cXs+cswfeIouOdzxahxM9GoXi3ksrfH4G8mYO2GbRjSrwcr/Fq6yXvBK/3Jy5NbYwJMgAkwASMEyMygSKECaNaojpGSCWeTmQKtGH49uC+y21gbLEx9VShXErWqVTKYz4lMIDMRmDbuG6Gc2yFLFktkzZIFxYsVwuRZ82FtlQ1hYeF49OSpXHkfMqAnypYqhv69uoCU+qMnz0lMtJJP8uChpzzr/tO/Zxd5O3v+cgQEvMbhE2fx/fDP0aJJPbRu3hChoWE4eeaiLDNKTCwiRbvUJ000vh02EJ98NgxNGtRG5YpldJvl62QkwCv9yQiTm2ICTIAJMAHjBDZu3Y1zl64ZL2ikBJkBkFIfJVYs4xOaFFy/eS++bE5nApmKQO0aVVCvVlU5Cb5+6x5Wrf8Pq5b8gj7dO0kOrnmd5fn4qfM4e/Eq2ncfjCCxAbdKxbIY3K87DmxdhbEjh6Bpw7gTdksxkdCIQqFAuVLF5e+511Mf3Lyt/h2sXEGt0O/c8CcWzp6MH8aPkBOQxX+uha1tdhwSXxBu3r6vaYbPyUyAlf5kBsrNMQEmwASYgPkEXvj6YdLM36TpwYChYxEqVgA3bduLXp+PQt8vvkPDNj2lWUGT9n3QseeXeOkfoO1k/LS5Mp/MCkhoVZLKdOv/DQJeB8s0Q+3LDP6HCWQiAkIX10qpEkVQwN0VXfoMxd6D6k22r4PeYMrYYfjjr3XoOXCk+EpWGi5OjsLevze27zmEyvXb4/a9h3DN66RtJ74LqnP52i00atcblpaWsBA2+jWqVpCr/rWadsVUYU7kkDsnNm/fhyPiq8DqpXPk5OLbCbPw7t37+Jrl9CQQUAh3S6ok1OeqTIAJMAEmwATMIkCKe6P6tTBRbPbTCLn/O3XuEvp264Sun32NqWOHI+rtW/z46xLM/3mS2BD4J94KRWDcqC/wzZjpIDMFUlo+7TccXTu0RB7H3HLVf/fGP/GJSGvVtD5KFi+CGb/8jjEjhkjlInb7tEGRhQlkZgK0sfZNSKje5l7i8fbtO4SFRyB3LnstHiobGhYmN+BqE41ckPL+Vvwe0yq+rlCfdra2YiKgMwvRLcDXKUKAV/pTBCs3ygSYABNgAuYQqFS+NDy9fDBk5ERZjUwKSPK6OKFdy8YoV7oEqlcpL68dHXLJCYEsIP4ZLTyJjB72ubzdd+iEtBMe0PsTsUGxs1bZiK99TRt8ZgKZkQAp3brefDQMsmXLqqfwUzqVJY875kjWrFm0v4O69agdVvh1iXyca1b6Pw5n7oUJMAEmwAR0CJCbvotXbsiD3AGSTS8p8we3rdIppX9poYj5k0U2wxo5ePS0/EpA93WFvTLJiTMXhC3/XTkBoHtT2qdyLEyACTCBjEqAvfdk1DfL42ICTIAJpGECu/cfBR0ktArftUMrTJg+F626DpSr+z7PfVG0sIfMN/QPqfwaxX/Z3+tlsKHe3TqItspg/LdfYtbcP+QKI5kV0PygWuXycdo31C6nMQEmwAQyKgG26c+ob5bHxQSYABNIZwTIztdWBPGhTX/mSriwP6YAQBqhjcDkhjCLcEuokaS0r2mDz0yACTCB9EqAlf70+ub4uZkAE2ACTIAJMAEm8BEJ+EdF4MJrX7yIDMPLqHDt+fXbSOSxskFeK1vktc4OV2tbuFnbobajG7Jbxky8P+KjclcGCPCbMACFk5gAE2ACTIAJMAEmwASAs4EvsMv3iTyuBPuZjaSFc0G0yVsIn7oXh4uVvhcfsxvjCkkiwCv9ScLHlZkAE2ACTIAJMAEmkDEJlD74P9wJCTQ4uFI5HOBsQIl/GBoEn8hQg3VqObhiaqlaaO4c/34dgxU5MVkIsNKfLBi5ESbABJgAE9AlQK4zr928o5uEYUM+g421lV6aqTc79h7GDRFBVFfID3/nds11k+JcU1RRii76/TeD4+RxAhNgAgkTmHD7FGbdOy8LtXYpBFLaa4qjukNe2GfJFm9lP2H6cyrgOc6IrwQnAnzk1wLdwk2cCmBe+QYoZ59HN5mvU5gAm/ekMGBungkwASaQGQmcuXBFRtpsUKe6dvgqpVJ7be5FkIgU+lxE7T0nlPjIqLegdl2cjSsM0e+jER4RaW53XJ4JMAFB4POC5SSHYYUrClt9W5OZ0BeATm5F5UGVnouV/zVP72L+oyvy+pD/U5Q/tBpDCpXHT2XqIlfWxC0GmPxAXFAS4JV+/kFgAkyACTCBZCcw9acFOH/pGnZvXKFtm6J8LhHuNbds3yt88ueWUXXLli6ODf/txsp1m4XnnuwY+VV/1KxWCctW/oN/Nu+QwYB+nPodypQsJtv5cuRkhEVEYNWSX+R9608GonyZkrh7/zH++HUaFq9Yh70Hj8lgXgtmT8aRE2ex5t9t+Pfv+ejSZyjyu7uK57qOUuIrAUX6pWihi5atBn1JqFyhDH6a+j0OHTuNneKevAh1bNMU7Vo10Y6BL5gAE0gagcWPr4G+IAS9i5INudvkwKbqbVFDfD1gSVkCMZFOUrYfbp0JMAEmwAQyGQFSxKs16iQPmgTcf/gEp85ewpwZ4ySJ35evgc+Llxg79Re0b9UURQoVwOz5y3H91l1xXobpE0fBPZ8rRo2bGS856uP46Qv4tHNrnBRth4SGYum8GTh68pyYXOxDcHAIbt97KOtfuX4bL3z9MWXMMDkZOCSCem0WZeiZfp8zDfcePMbvy1cjWEQDpjZz5bRHuTIl4u2bM5gAEzCfwFeFK+B+s/7oLL4EkDyLCEHNY+ux0uu2+Y1xDbMIsHmPWbi4MBNgAkyACZhKIK+LE36e9r0s7uToICPukk1//6FjZRr50D997rK8/mJAD22ztPJOMmr8TGnKEyZ87r979x5Zsxr+kzV8SF9079IWDx97Ye2G7RgycqKsHySUd4dcOeW15p9POrZCiyb15LMEBL7GkeNn8UDUGzp6CgICg3Dn/iO45nWWgb3mzlRPTjR1+cwEmABwUtjoH/LzBpnokL2+rtgI95z1HPOhqXMBNBV2+5VyOetma6+dhHvPzTXaYfb9ixhz64RM7395H0Kj3+JrYUrEkjIEDP8PmjJ9catMgAkwASaQiQjkypkD9WpV1Y6YTHYuXbuFcwc34fNvJuC9sLfXRN09d/Eabt25j1NiEjCwzyeyzs4Nf+KOWKV/5uMbr8JPBSmgF8niP9dKZf5/S2ajUr32Mi32P1my6Af+qlG1grT5X7diHnbtO4I8jrnx2NMbOexMt1+O3QffM4GMRmDV09vY5PMAh/29ERb9Lt7hRUS/x34/L3lQIYes1tJdZ6/8pdDCJa7Hnu+LV0UZe0e0PbNVtjns2hG8E3t/RhatHG8fnJF4Aqz0J54d12QCTIAJMAEzCNSpWQULxSp+jaZd4Sa+AoSIFfwywqa/a4eW6DFwhGxp/k8TQYp46+YNUUuUKyBs8E31vFOtcnlMmD4XrboOBH1l8HnuC8fc+iv9sR+3c/sWwtTnHMrWbAWqP3XscDwRSj8LE2ACACn7Y2+dlEG4dHk4ZbNB5VwucMxmLY+cYiNuoAjQFfguEgHiTL79Q96/lferve+AjjI5HLG4YhPUz5NPtyk5KTjfsCean9os7fxH3TgmA3rRJl+W5CXAG3mTlye3xgSYABNgAgkQiIyKglKpQnYba71Sb0JCxWp+Vj2XnpRmZ2sLCwuFXtmEbqgOrfzTJlxzhOz4c9rnMKcKl2UCGZZAsNhk2+38buzz89SOkTzy9BYr9p3ciqCuMOExJntfemLz8wdY630X9AVAI8OLVML88g01t9ozufesfewf7f2J+p+a1I+2Al8YJcBKv1FEXIAJMAEmwASYABNgApmDwMOwILQ89R8eibNGhgo7+1ll6iTom19TNvaZ3HWS2c6W5+oN9ZTfTATn2iJs+u2yZNUrvsHnvphs7JJpbtZ2uN6kj/ySoFeIbxJNgJX+RKPjikyACTABJsAEmAATyDgErgT5CTObLXj1NkIOikxy1lVrjfI5jcfEMEZht+8TfHZpn7btymKT7746nZFHmArpyugbxzH34SWZRHECllVqqpvN10kgwEp/EuBxVSbABJgAE2ACTIAJpAcC5HUnIbOcC69fotnJzQh+r/af38m1KFZVbRlnNT4pY30WEYqOZ7fjUtBL2QxNKo7U+wTkzUdXKh1eg6vB/jLpUqNeYv+AYS9AunX42jiBDKf0X7h8HV7ePvB/FQhnJ0cU8nAXAVfKGidhZonA10Egn8/ePi8QHR0Nd7e8KFu6BPK5upjZEhdnAumLwJ6b09LXAyfhaVuVnZKE2pmrqnJX5vm5sGjDPxeZ66c7/Y829P07uO9ZjkK29lhZpQUq5HTSGxQp42UPrtIq/ONLVMfM0nX0yiTnDSn+2148kk3WcnDF6Qbd9Zo/HfAcdY7/K9OaC1Mg+iLAknQCGcJ7z0v/V/j5t6UyCmNk5Ns4VGjDWIc2zTB62OfIncs+Tr45CQeOnMT8JStx+26MbZpu/WJFPPDFgF7o1La5bjJfM4EMRWD3rakZajzxDYaV/vjIxE1X7Z4aNzEDpihaZ45xZsBXl6mHtODRFanQ0+r5RuF6M7bST3b0mhX+XvlLpqjCTy9ivTAZqiuU+svCnIg28P5w9ywml6ypfUe1Hd3QLV8J/OtzT7r/vCi+QlTNzYuqWkCJvEj3K/0Uun32/KUwpOzHZpLT3g6TxwxPlEJOQVwoaiSFZzdFyOXcnBnjeeXfFFhcJl0RoJX+zKL0L+ymSlfvJjUfNnqo6R52UvM5k9o3Kf280p9Uilz/YxNw2rVE2tJT8KynLQfp2dHrbp6NveruGxmGr64exn8vDC90mjoOO8us6CEmE78Jrz3ZxTOQ+IivC1WPrINvVBisLbLgYfP+yGdjp23ydkgAyoivDyTd3UvIiYI2ky8SRSBdr/SPGDsd2/cc0g7cI78bateogmJFCqJgAXfpa/nuw8c4eeaiCL3uJ0Krh+LbCbNkqPWxI7/Q1jN2QeZCnXt/iddBb7RF64qAMxXKlkTxIoVgJSJM3rn7ADfvPNBOCijQTKuu/bHh74UoWbyIth5fMAEmwASYABNgAkzgYxHYI1xnajbmDilYXk/hp2cYc/OE9lFo066u9Lu0X89tp26eOdehIqDXcs8byC38+f9ctp6sSgr+0kpN0EGY+kQq32P6vXNYIvz4a6S0sPdv7VIIu18+wdbnj0AmSrG9/WjK8tk0AulW6V/y9zo9hX/k0AEYNriv3qgb1q0h78kv9K+/r8Cf/9sg7ykqZLkyJdCmeSO98oZuqO6gYeO0Cr9HgXyYO2NcnH0CzRvVldXvPXiM0ZN+FJElHyA0NByDR0zArg0rOLqjIbicxgSYABNgAkyACaQoAYqkq5H+HmU0l/K8RgTN8gxXL2iOKV4NBbPrm0CfEpt/SVyEj/6SORzkdWL+ITMeCtZ19NUzvertXdU+/2mT8dIn1zFVmPjktY6Jht27QCmp9NOkYKv42kBxAlgSTyBdKv1+rwIw/4+VctRWVtmwdvk8oYTr/yDrIrG2ssL4UV+hWqXyGDJiosya8csiNGlQG5SXkPy9ZhMePXkqi9SqXgl/LfoZ1Gd8UqJYYez4ZzkGfzMeB4+eluHjl/69XuwnGBRfFU5nAkyACTABJsAEmECKEPjvg3/8knYOcVxvLnp0VfZJbjMniM27sYVW6ElauhSUG4Bj58d3fyckEKV0Jgk1j67Hude+iFJGx6myQJj8VD6yVqb/6XkTE0uqF2wpoX3ewtryFOyLlX4tjkRdpEulf5lQoqOi1Bt2pwgb/YQUfl0qzcRq/JcDe+GPFWvx0i8AG//bjT7dO+kW0bumVf5lK9fLNNoA/Mev0xNU+HUrz/95Mhq36yX7+XvtRrG5t4eMLKlbhq+ZABMA7G1c4ZC9gDg84GDrAVurPLDOag/rLDnk2SqLHaLehyHy3RtxDpHn0KhXeB3+FIFhXggM90JwxHNGmU4JKBoOg6Jil8Q9/dswKDcMA149Tlx9rsUEMjgBsot//S5SjrKbe3G90d4LfS0VcUr8JF9x5MgS/4KmXsUEbsiMqObRf2RgL5oo7Kkdv46laaaScMdJG4uviU3GK5/e1lP6bUXwriZOBXDI/ymO+Ot/JdDU57PpBNKl0r9t90E5Qvd8edG9S1vTRytKfjGgJ/4nNv+GR0Rix77DCSr9R0+clfsAqIPB/XvAPkfMBhNjndpYW0svPtN+WoCIiCgcPnYG7Vs3NVaN85lAhiaQPZsDSrg0QUHHGijgUFUc1ZDNMnuSx/wuOgJegRfg/foSPF+dxX2/w6CJAUvaJ2DR4GvAWV8ZMeepLTqGQ/nnJ+ZU4bJMINMQIK83GqmWO6/mUp63CTt5jbRzjVlR16Ql5nzrTYA2ki+tzJtqh99OrOiT0k9RgGkyUsIut7b7hnncpdJPkX29hCmSRywTJG1BvjBKIN0p/Q8eeSIgUB0auqNww2mu5LCzRQNh67/nwDFcvHxDKv/k0tOQnD53WZvcsbX5fbVr2Rik9JOcOneJlX4tTb7ITATsrJxQuUA3VHDvhOLOjfWG/iL4Jl6G3BMr9p5y1d4/9CHC377WW9WPeBesXvnXWf23zeYIR7tC4stAQThmLwhn+xIo6lRfHvigPz70P4Zrz7bg0tN/EBLpp9cv36QhAsJrB3yuIXpWRbMfyuLrfVBUEl8JnIsBfjF2y2Y3xBWYQAYlcEnY0mukUi593/xHXnnLLPKs00qsyieHNBAKeh9hd08K/6hiVUzeeEuTjhliIy/JEX9vPaVf170omQ2x0p/4N5XulH7yya8Rj/z5NJdmnUuVKCKVfqr0VHjmic+7jn9AoGw3a9YscHE2PwS1Q+5cop6jNPF57KneF2DWg3JhJpCOCXiIVfyGxb9BVY9e2lE8eXUad18ewJNXZ/Ak4IxU7rWZCVyQaQ8dCQmZAxXMUxOFHGuhZN5mYgLQQB5dKs2Xiv+Re/PE14DzCTXBeemMgGrfj1CUag6L5uOgXDMgnT09Py4TSHkCT8KCZSe5hNccN2t9a4WbYlWepIy9ozwn1z8UxTe2RBqw5dctU13nK8RdodjrSmmd56OvAGQ2xJI4AulO6X//7r12pFmzJO7xSRnXSPCbEM1lnPPbd+oNLNbCJWdixdEht1T6yV0oCxPIDASyWopgeBV+RoNiw+Vw/ULuY9/tGbj+bCsihU1+Sgm1fdf3gDz23PoBtBeAvi40LzUOVQp0l8eR+/Ow5cqolHoEbjcxBBTCv78qcfEQVA+OipWbS1DU6APsEE4agp8n5gm4DhPIsATIvIbEVccjjmawzyLU/x+7GMjTlDF2nn73HOY9vCw22JbEggqGPSL+KvLJdMeYuNvkAD3T4w8TFU35IrY5NZfwDk+5vyHaTjLwReK05lQE4prXWds7efFJjPj5x9Rzc40/wpvbh75CQsIQERkJstM3V3z91D/obq4xz21uG1z+A4HIEKi8L6UNHDa5oHA33xwhbTx8yj7Fl/X3oJhzQ/gEXcXum1Nx3WdbynYYT+tR70Nx3nO1PMrla482ZaehUfGRcLUvg9+PtYinFienNwLK3dNg8cV2sdo/BsqN36S3x+fnZQJmE7h+/TrKly9vUr3AD5t4Y2/SDfswGaBGyHNPfJLNwhJvxSq9oWn5rHvnMfnOaVl14eOrsLK0xC9l6+s1tdHnPkbfOK5NS2h+n09MPkjp9zKg2NuLTcZvhMtPH2HXz5J4AulO6ddV0s+cv4xBfbuZPXoK1qWR/PlcNZdxzu46eWfOX0Hj+rXilEko4fa9hwgMVH9aK+CeOFOkhNrPbHnK//WG6vr2NDNsi3FXWPGP9TZalpkkFX5S9vfcmhYrN/Vub/hsBx1ty81Ai9IT5LHv9szUeyDuWYeAWOk3qFLoFEngUnVzJ/D8JhR1Pgd2TgEighIozVlMIH0TmDx5MpYuXYoxY8agd+/ecHZOeEEx/L3aOoKUZl2xoC9sHyRnVv08TTqdSeEniSktb7HW+y4m3D6lvvnw75wHl1A1lwu6iei5JOST/9Pzuz7kqk863eql043mi8NLEaE3ttDEhJT+wLdqT0Sx8/neNALpTumnjbiN6tXAkRPncPz0BTx99hwF3N1MG60odevOfVy+dkuW79CmaYL1OrRqil/mL4NSqcJK4fHHXKX/7zUbte13aB0TZU6byBfmEYgQEyhreygajzSvXnKX9r4M1Y0drFwY4Fo4T22QJ520pPDrPubOGxNRq/BAlHVrJ0yOWOnXZZNur8XSoXL/T7DotwYWTb+FcsekdDsUfnAmYIwAKfv//vsvJkyYgEWLFmHIkCH47LPPkDevvmceTTu2H8ygw6NjTKMpz8YyRv3zj4rQFDfpvN/PC70v7pFlHbJaY021VugulHtSyvtf3i+DeCnENKHd6a0mtacp5B8VLi91n02Tp9kTYK3z3Jo8PptOIOatm14n1UsO+qy7VPqjo5UY/8McrFn2q0nPRCY6Y6bO1pb9XLSTkOR1cULzxvWw9+Bx0NeBXfuPmBTFl9o8efYiNm/fJ5uvVL40qlQsl1BXnGcqAaH0W7SZamrpFCmnOv2nWulPkdbTd6PBES+Q1dJGKNYDcObxX2luMBXcO8PeOi+eCveeLGmIQELf/E14TNVFEU+l/UwoGo0A9v8MRKWcCcCjRw/xeJ/6//aEHk2VxDFR20ltIzXrm9K3j48P3NzctOOkOpp6xq5NLafhGLt87Pv4ypmS/rHbImZPnz7FkydPMGnSJMydOxerVq1Cy5ZxN9DaZ1HvSSSFPLbQ5t6gd1EgV5imyhXhDajTWbHoJcRaeN7aU6cTaBPuxhpt0eLUFkSIyUW7M9tkEC5NYK/vilXFcbHqT8G5EpLnkeoV/txiIhFb3ojnJCFPQyyJJ5Aulf5a1SpJ95fbhb9+cqtJ0W/nzpwA+goQn/i/CsTX303F7bsPZZHPenZG6RJF4yuuTZ/03dc4duqc9LU/euKP4hyJrh1aafMNXew9eAzfTfpJmzVr8mjtNV8wgYxM4FXoIzm8ntVWCDOfRth2bUyaCJyV08ZNmPZMR81Cag8vfiEPMvJrSF9jS+h7v6kjUSnVq/3d/4BF/a+gPBCzuGNqE6aWCwkJwZUrV0wqrkji2FKz/sfo29/fH2FhYdD0ReeErhPKoxdirL6mjIWFRYL9aMqZ2p+p5Uxp15S2bt68KQKURoHGkT9/fqnsFyhQgJqPIw7Z1Aq0ZhVdt0BB4e/+qthg++KDsq2bZ+iaPAGRYh/+IUrvhuptpMJPZZs7e+CnMnUx9tZJeH/YIEzp5L5zdtl6ImCXmJgbEfLBT6K7cZfuacKimUA4W2WnJJZEEkiXSj+N9YfxI3Dh0jW8eOmPg0dPo2mHPpjw7VdxfOFT5N7N2/fi5/lLQRtySYoW9sCYEUPktbF/aOMwKe0jx82UUYC/n/yzcPd5FBPFZKCQR3696k+9n2Pm3N9x4EiMndv4b79EiWKF9crxDRPIqARehaojo74VEXSrefSWx+F7c3H56b8yeNbHHje5DaUYAY1LfCu7pufKlsUW/qGs9H/sd5Fgfzld4/2CpxJmfaoL64CQlwk2oTqxBGg9RW3+l4JKf8WKlVC5zdgEn4UzmUBKEbh37x5Onjwplf127drhiy++QNmyZePtrlQOB2x9AbwUpjO0qk+r+xqpmNNZKv3k+56i9hpaYdeUJVv6Fqf+g7+IuEuyqEJjxA7oNaZ4NdneP8/uyTItnAvCkPtOmRnrH/qCoJHYLkRvf3AtSvklc+TWFONzIgikW6WfouP+t24JBn09FjfvPACt5I8YNwMz5vyOIoViZrw3bt2TAbg0bKpXKY+lv82EtVXMD74mL75zBxGYy1LsSh/+/Q+yCO0noKNsqWKwtVXPOsPDI3Dj9n29JqaO+wZ9u3fSS+MbJpCRCbwSwbVI9t2ZJSw6FWhWaqxUuEnpfh3+FLdf7MUd3324//IwIt4l74ZLWytHFHSogXy5K8ItZzkUyVMHubKrJ+ak7B+5/5v46uCDT6sshj+v9KeZH0PVy3vS175CKOyGRG7zLVQTyhXdDGXrpSkPzYVFp1+gqDsEqpNL9fL4hglkBALe3t4oV64cfv31V5M8+JTLmUc7bIqWW8cxZg9kLQdXrHyq3uO47flj9PMorS0b+2KHr3pBh9JJuR9auELsIvJ+fbXWaCui6/pEhGJ4kYoGyxhK3CC8/GikiXOMDkdpl3UmBGXtY8ajKc9n0wmkW6WfhkhKRfUqFaTSrxnyq4DXoCM+KVOyGAJfByGnfY74ihhML1TAHRTU6849tfkCFaLJRnxCLjop0i99abCyin9nfHz1OZ0JpEcC/h/MexyyF8A/F7/A4Xu/Sv/4pV1biaBZNVGnyGB50NiCIp7h5Zu7oKi8byJ9ZSTe8LeBCIsKEBOCYHlPEwOK0Js9W27YZM2lPmfLBYrIS2nZsznAxb4kCgsF38lO31yPFPyr3pvkJIOi8pILz/blf5RY2bwn7fx0KRe1SPBhLIYfFFF3u5oUdVez2m/RYhyiTy0XRvHKBNvmTCaQ3gg0bdoUdJgqFXSU/pMBPnpKf1vXQsBVdUubnt9PUOnX9NctXwlpxqO5N3TuJXz2myv/PlMr/Y7CS089x3x61Q/5P9XeV8mVsLcibUG+MEgg3Sr9vyxYjj9WrI0zKFtbGzg7OSJ3zpx49twXuj75qfDfazfLo3+vLvj+myFGFXLyDjR99iIcOnY6Tl+5c9mDNvuSXd2jJ16IjHyrLfP8hR/IFGje4r8xfcJIsz3/aBviCyaQjgiQ0h4pFPY8dkXkU5Mnn7NP/pYHJZBiXt69I0rlbQEHWw8UdKyBEi6m/wGLD0WUCMxFJjuBYV4yONc1H/EZ2sBqvmZiQF8dWNIHAdU+8dWoRBPhh3+siLo7MOGHFht4VUfmQ9FyAhRVewizoLh/IxJugHOZQMYiUDqHowzMRXb72148kqv0mhFShN6aYrX/bOAL7PJ9godhQShqm0uTHedc39Ed/1RvHSc9qQm7Rd9PwoNlM30LlIrT3CE/b5nW2Ck/2HtPHDxmJaQ7pd9X2PDThlyN200abcVypdCmRSPpaSe23/1Isdnl0WMvXBJuOg8ePSW98FAdUv5PiU3AS3+bAY/8+rNKyichN50//7ZUrtbTvW12G3Tv2g71alVFpfJl4mwcpmBhj548FX1cwNadB+R+gxe+fhg0bBz69eyCyWOGUTMsSSEgJljmisrnOiACjChcy5hblcsngoC/MPHRKP2xq1Peobtz5KHJoxX8/A6V4Z6rEqyzJvwFTql8j5AoP4RE0vFSXL+EZh+Bpr2Ezk45iomvC3cSKsJ5aYyA6t7hD1F3+4qou5OMRt1VHpwDyyajxB6BKYi+KPYCJIMXnTSGhB+HCZhFoE3eQvjT8ybOCOX+mTC7cbex09Ynzzpdzqm98Uy5fQZrhftNXaGgXiEfPP/QueGJGFfkuuWMXd8W+wZIKNhXbBl3K2Yf5NDC+iZBO4VZUfB7teeeVi7iywRLkgikK6X/2s07GDhsrDbgVYM61TFq6ECUK1MiXghku1+mVHF5kH39sVPnMWnmr3jm4wsvbx8EBAbFq/SfPndJq/B/ObAXvhjQM46ir9uxcx5H0EHehYYN+Qy//r4Cf/5vgyxCEwiKzrt4rnpfgG49vjaDgNL0z/UUyIsCekFE8pWS3QEWA/+FomTSV5bNeOJMV5SU8Er5q8BCYQmlKtro+MmEh2z86UhpIVOgu777U7obbj+ZCSj3/ACLIdtMi7orgnOphGmPouFwKMq1S1MB/ZIZCzfHBEwi0D5vEan0U+HFj69hVpk62nq0eq6Rdc9EwK2S1UFfBzRCewD2vvSUt1eC/TTJiT43yKO/yLrJ5wGuv/GX7fVwLxnHc8+qpzGLND0+BP1KdOdcEelG6b909QY++SxmpfyLAT2keY6575AmCsd3/4NvJ85C80Z1UblC/Ku/83+eLFfpB/frAapnjtBkY/yor1CnRlXxZWKKcEsWIf39Dx09Bb/PmWZOU1xWl4CJK/2q23uhXNpBLCtkh6JmP0CsFJAvb+XCZrD4/jwUHtV0W+XrZCQQEPZYtuZoV9igiU0ydmVWU+S2M4uFlTADUm82NqsyF05VAjIYnv8DddTdPTOAULWSEN9DKYWvfkvhutOi1WREp6Eo3vE9L6czgZQkQF52yD2np3CJ+ceTa5hUsoYMzkXefJqc3KTXda8Le3C6QXdt8K4VlZth+LWjePXBa49eYTNvyJPQtFK1tbXI5GjYtSPa+xmlY/Io8UFoEDZ+2OBLk5N8Ol8otJX4wiwC6ULpfx0UjKGjp2oHNnbkFxjcL+HAWtrC8VzMnTE+npyYZBtra6xdPi8mIRFXNFnYtm4ZBn49RnxZeC7cfR7DT/OWgMbAknIElBu/AazsYDle7FLKo7YvVzUfA+WsilBt+RaKkcdTrvNM3rJmk6yTsOs3ZFdvDh7XnGWFzX9j3Hq+O8nKusbkyC/kvjmPwGXTAgFhoqPcNQ0y6m7jEVBun5DwUwU/h+r8GjnhVxRvBNX9GMUi4YqcywQyJoFhRSrht4eXhdJdS0/h13jGySmCeJEZDfntHyCi6pIXHhKy+98kAm8lt1AQrzYiYq9vlNqV+rji1VHYNqdeN9PvntXekxkSS9IJmG8gnfQ+zW5hxLjp2g25Xw/uk2SFP/YD3HvwGDv3HcaSv9dh7YZtOCFs8sPC1OGgY5dNzH3hgvmxYtHP0psP1V+28h9cvHIjMU1xHVMIkDmP333xB/8zrcJP1RT5KkBRpRtUD0+Y0gqXSSSBgA+++h1tCyeyBXW1Ik51Mb7lDXSpNB+T2zyAc47iSWrPWdjzkyR1IpKkh+DKphNwKKBXVm7KffVImO2IL77WCe/9oIqq/T/J+gqxAZiFCWR2AoMLlsP9Zv3Q36OM9Mnf+MQmrSvMOg5ueNRiAKqJyLok5Gf/+5sp+3ey2/ld0JgL0WZiXZMjeobzInrvam+1aQ89V0uXgpTMkkQCaV7p37HnEE6cviiH2bJpfWnDn8Qxa6v/vnw1qjbqgFZdB0gf/LN/Wybs/efhsy++Q7nardF78CjcupM8q4Kk+M+ZMU7b9/dTftZe80UyEyCFQKzy442BYD6hrwB79X9scXr1Ff/BRKojAsbJ4wSTCWjcdjrlKGpyHUMFizs30UtuXXYq7K3jeXd6JQ3fONl9UPrZvMcwoDSUatFmGiyne8Uxw5ORdq1yyKi7xh6X/P+rrm5WxwAoUMVYcc5nAhmagF2WrNLzDQXZanB8o57CvbdOZziKyL27anUUm3zVE+pfHlxEh7PbEfr+XbJyoWi9lQ6vgcbvP5n8bKvZPk4fX12N2eP1i4joy5I8BNK80j/r18VypHZ22aXry+QY9uVrN9GoXS/MXbRCuynYULunhXefdt0HY8Yviwxlm53WsmkDtG+lVmQ8vZ5h36HjZreRGSocPHgwycNUVOgI1ZVNUF2O8TSgOr4YqnuH1D6/Y/Wgur4N0dNLQzm/MSAigLIAZ86cSRQGjTtMjTlNohoRle691P85qFKgB2Z2eIHPaq5N1Kq/xl0nufVkSTyBI0dS2FRGTNgVwvsOiaLNVHnW/KM6u1La8yuafAsIryLGRLVPHZdB0cK4OaextjifCaR3AmSX30is8N94Ixa/hFBwrgN1uoAmBCROVjbivjMKfFD8twsXnzWPrsfF1wYW0GQN8/5ZI1buKx1eK02IqGZl4XP/eP1P4WyVXa+h724ex6UgdZ8UF6BBHne9fL5JPIE0rfQfPXkOL/0C5OiGDe4LR4fciR/ph5qbt+9F175fw+upj0ypUK4kZkwchU2rfsfNs3txbPd6LF8wC0P699D68P9rzSah/H+OiMjIJPf/uc5ehP+t35Lk9jJaA6dPn0afPsKEa/BgnDt3LtHDs+g4GxDeepQrPkX05MKIHu8G5b9DgZxusGj7g167qqtbxKbfjqJ8bqieXvqg+AfplclsN+/fv0evXr3QoEED7Ny50+zh+4Xci9dtp6mNPX51Cj/tq4BNl4djys5CMthXULg3qnr0xKTW99Cj2jLp69/U9ujLg++b26YW53IGCEydOlX+XPzwww94/Fi9YdtAsSQlWQibffml7vVTKMq0hiJ/5Zj2hMtA2qQLOyf1pt6YHINX9PusunsAioqdRXCvpJmHGeyAE5lAOiFACn9DscKv8ZRDCv9+HYVfM4ySYuX9WpM+aO7sIZNuhQSg2tF1aHdmG26L68QIxQeocGgN+lzci4APG4LJXOdYvU+RRwTj0hUyLZrz4JJMcshqjXnlG+hm83USCaRppX/Ljr3a4XVul3DURm3BBC7IVOe7SWo7Tyo28buh+G/NEvT8pL304kMRdMnPf5MGtTFmxBDs27JS+OMvLVu8JaLvjps2J4HWTcuiiMDVq5SXhc9euAr/V4GmVcwkpWrXro127dphxYoV6N27NwYMGJA45T+nKyx/eAxpz6sQP+ZCoVeQycBUYa4lrjVCXwKUy7uIyYAo/905WHT5FSrvy1AuaCpW/DOv4p8lSxZMmTIFFy9exNChQ9GsWTPs2LFDg83o+ZWIzOtkW8RoOWMFfIKu49iDhSLolidOPVqKSTsKYOWZnnjofwy1C3+OaW09MbzREVTO/6mxpsTXgRLIa18abctNN1qWCxgmMHHiRDg6OuKnn35Cq1at5M9Isir/WW3EKr9YxQ/0gnJxW/kQilbCN7+O0Bc7+t20oNV7C+O+KDSr/RSll4UJZEYCflHhqHdsA0iBJ6khbOQNKfwaNrmyWuHXcvrKNvnLL3NwFaqLlf9Z987jXuhrTXGDZ4r+++2N4yiy7y90FGZCmskGFaZNuXtqd9J+YdA0cELU6XFht+YW/1ZvIwOLaRP4IskEjP+PmeQuEt/AyTMXZeW6IhhWcqzyTxT++TWyaukc1K2Z8G7wAu5u2Lx6MXoOGgFS0LfvPog+3TqgSsVymmYSdf6kY2ucv3Rd1j168izoXldolfvdu7h2dMuWLUPWrOrPcBmpfP/+/XWHg4CAADg4OODhw4fy2LVrF7p37455RuJyqJ6cgaJQrZi2bHLCooP4vE+HAZEuPP/uCeTKB8uRx+SmX0XjkcK/vALKTSPFir+IAvrNIcAml4HacZPmzp2LmzdvxskYNWoUypWL+zOT1spPnz5db/VWJTymZM+eHU+fPpXHlStXUKRIEUxdof/zGmfAIoHs+ku7tga5yQyOeG6oSKLTLj1dDzrIXKdJydGoU2QIijk3RNvQmTh2f4HMC41Sf77WdGJv44qsluoVpRalJ4pna4XlJztDY4qkKWfsnNl+Nw2NV/N/0P379/Hjjz9iyZIl+N///odmxuCZkK+o/6X8fVP+9x1Uz29AdW0rFBU6iMB6paF6cVvdwrsIddTd1lOgqN4LqrP/S7Bl6blHrPgrqvcGyOuP8OzDwgQyCwFf4RaTTHruhqoXGEnhP1A3xqTHEIc7IpBWI50gXK7WtiD3miQXxAZbOibcPgVrMel2EHsBaD9ATjFRoP0CtJL/UkwyDEnFnE5YUrEpajjE3Zt1OuA52gpvPhqZX74hmjrrb+bX5PE58QQU4g+7KvHVU67mg0eeaNG5n+xg6Oe98e3Xg5LU2dETZzHg67GyjYF9P8WEb78yub2Xfq9Qq1lXWb5+nWpYufgXk+saKvjEyxtN2veRWd27tMWsyaP1inl5eYkgknFfi4eHBxRCIY0t6b28p6en3pC2bt0KMiMIDg6Gi4sLmjZtin79+qHxzRlQ+T+C5UxvvfJQKUUQrr4g7x6KpqNh0cn4+1Fd+gdKUviFuY/lt6cABw+9NlXHFkG5YZg0LbD4RmwoEhMIjahO/wnl2s9hMeIIFMUaapLx8uVLREREaO81FzQGGxv9T5iUl9bKv3jxQgSjU0c+pOe7c+cOhgwZAm9vb+TOnRtlypRB165dUbxJEHbfmkpF4pWGxb8RXnd+w2+H6+OR/4l4yyVHBk0sahTqJ81+XO3LyCbvvjyAS17rccV7I6Leh6KIUz2MaHwce279AJusOUHPF/kuGMtOdsQDv6PxPsbCbvq/h+n9dy05np9W+9etWyf/L3J3d5cTcvo58ZhbJF6OJmUIG33L6Z6yaPQE8cdeRF8m0x6LscJER+zPUf75SUwzYiJu+aNQ3oOeIXpaCaNRdxXl28vgXqqjC6HcODymnURcKVpPldF+E1GVqzCBj0qAFHWKoHv/w6o8ecnRteE39DBkwkMbfTV++cmm/p/qrWWArnnC5ed+Py9D1eJNcxLmO21FnIA++UuhkU4gMN0K/z1/iM4fogJT+k9l6mJMcY6lo8soua7T7Er/nXsPtWMsXDDps71te2I2BX4h7PXNERfnPPi0U2ts+G83jp+6gNdBb5A7l705TeiVLeSRHznt7RD8JhR37z/Sy6MbUu7NkfRevmDBgtrhRkdHY/HixbC0tESXLl0wevRo1KxZU+YrhdIPA8G5lKv6SYWfVuRVB+dAaZkVFu1naduMfUGbAZWr+4sVfndYjhIKaSyFn8orGnwNsn0jxV+5QKz4D6cV/xjFP3abdE/KvTmS1sq7urrqPf64cePkV5caNWpg7Nix6Nixo8zfc3OaXjlDN2TeQ0KbeVNa6acvCftvz5JHQceaaFrqe1TI1wklXZqhV/W/cNFrHcLeqj9rPw28iJvPd+B58A30rPYnBtbZhLH/5TE0BINp6f13LanPf/nyZRw4cAD0s9KzZ098+eWXKFy4sGQVbZCY6YmKmuJ30t5VfGUbIRV+qkmmdqo7+8Tme2GC51RUfEL68HeBou4KMx8yBSJ7fdWVzQl2FBPcaxCwZ7rR4F4JNsaZTCAdECCFn5T3B2FqMxxTFP67YoVfV+HvLiLgavz1kw0+HWQqRHb3d0Ne45nwxEP9kEcezeq+nfj721Ao903E0VTsCyhr75ggrZnCVGii+GqgETIrGllUZx+PJoPPyUIgzSr9wW9CtAM8c/4ynnr7aO9NuahXu7petF3yxENC9vSJMRVq2rCOVPqpjdPnL6FN80Z0KWXxn2sMmuNo8g2dyWyClH7/gEBD2Zk2LSgoSJr2rFq1Sqvs68FQKvVvV/ZWr/BX6ASLPn/LiLtkw6uMfmdwxV91bhWUawaoTXq+PWlQ4dd0IBV/EbBEuW6w3Nwbe8VfUy4jn1evXo3OncUmSDNFE/WWAnR9TPEMOIs/hdlO7uwFUK1gb7n6Txt/NVK/2FAUcKgib5+9vgL33JXgaFsIAWFPNEX4nAAB2uBNk8B58+ZJU68EipqXJfbdSJv7sFdQnVymV1e1+wcoSrWQG/Dl17kPucpDv8JS+Oy3ECvv0UaUfvHpFErRjsVnq2HR6Bsod0zU64NvmEBGIuATEYq6x/+VEXhpXFVyuWCvARt63TFLhV98FdCs8NPK/KqqLXWLyGvytDNcBPpKqlwJ8sPYWyf1vhz8Vbm5jCOQ1La5fvwE0qzSH6oTHGvTtpgNvfEPRT8nRw47PaVfs2HWNa+zfkET74oWjll9f/TkqV4tUvrDIyL10ky9ef062NSimaIcbRI8e/as8bHqmvSQwj9oo/gKYCls8A9LBV2u+L+LhMWnC7VtqU4th3L9ECB3AUgbfgMr/NrCHy4UdYQZj7jWU/xjF8qg9+vXr0/0yGjjLUkeYXefGkK2+prV//y5K6N3jZVwy1lOevsplbeF9pFobwAr/FocRi+qV6+O7du3Gy1nbgFFNTExE7+PKrK5Fzb7uqJ6fFoE1DsuA+th5+SY1X6Kuiu+2inqDBaTgubii8B+3WpxrlUX1gHtZkAhlH5Q4K6o0DhlOIEJpHcCIcLDVQOhvHuGv5FDIYX/kLDhJ5v7+ESj8NMqPslnBUpjZZUWoLYsxYQ8u2XyqYrkinP63XMgjz4aIRehm2q0E8HBzPtarqnPZ9MJkD6TJqVKxbIp8lzv3yfuI3Q2nQ20hjbZJvZha9eonNiqmbCeQtjdiCMehV8CET6+SfFXeFSDxi6f0qXCL1bspcJvwIY/IZhS8e+5TO3VR/rxV/9nKh4moWqZOu9ddKTYwOsjlP7Cqc7B+/VlvBfPExD2GDN2l8KwfxWYvb8qxm9zkZ6AUv0BM/sDiN9pi9ZCmRdKuPLoAoM0VHtnil838TUglicf5V5hxif+PzDJDz/9v3FgtnQHatFgqMF+OJEJpHcC5DHnUViQHIYpCv+D0CC50Vej8A/wKCsVfmrgx3sX4LxrCQZdPgDaaJsUOSD2AjQ9uRlVj6zTU/hpz8B14SKUFf6k0DW9bvJN30zv06SS1atUwONrR00qa0ohj/xu8PJ+jmfPX5hSPE6Zpz4x9dzd9G2fyb8/y8cgIDZVCgWBVt3lpt3qfcTn+lVxO/6g+CsXtVAr/iLSLgXlQp4i6hV+4a3HXNFd8Vf53v5QXTwPS7wEyIMPra6nBXGxL4knwvRHI96vL2ku+ZzKBBTlxV4Rp2JQ7RMKfDyr73IVX9j3yy8COycJl55P1U8tXHvSpnxF1Z5QiKi75Jc/IaFN+GgzVe0W9PA8QKxksjCBjELgeWQolnvekMPxyG5vdIWfNviSDb9vlNozz6CCZbG8UjNZnyYBvz26jIjo91jhdVMejmJTbmth11/H0Q0VhCce2idgSPyjIqS9/wMx+Tgb+AL7X3pp3YVqyue1ssXCCo3QNV8xTRKfPwKBNKv0J/fYCxcqIJX+azfuIiDwtdl2/QcOiw2fH6RYkYKaSz5/bALij73q9Arhfi8ehV/zPKT4f71P+tuXCj95+yC3nIlQ+DVNSsWfJh3Ccw+LcQK0mbeoU31YZ7UXnnI0X0eM10vuEnZWTrDKkgOvQj5sAk3uDri9JBGwaCXs64VJj/JAwl63pE3+kK1ytV/3d5D28Ciq9pBxOFR/tE34WYSSrzo0F4oOP0FRe5DcDJxwBc5lAumHwBH/Z9qHnVG6doImPQ+FQq6r8A8uWA5LKzXV1ifb/RXCxv6X+xdxJdhPppM7ztUiqi4dGqEAWi7W2UHn52JT75PwhE2WyWUobdTtJjYJs3x8AhYfv8vU6bF755g/Bn/8tc6sh6BJwrpNO2SdwgXz6+0VMKshLpwsBMjftsEV/titk+I//CCk737y9nHuf7FLmH1PioKipbA7ZjFKQOPBxzlHcaNlU7KAUw71SpJmc3FK9sVtm0eAbPEh3HKqTi41GgxPdX0bIHz30+8gcufXdqR6fhPknUdRtg0UbsbNQpXHfhdfFEJg0XyMtg2+YAIZgYAm2i2Npax9/F7JSOGvf3yDdoV/aOGKegq/hkUPoZhfbtwLpxt0x8QSNVDbwU2TpT0Hir1z5Nf/VODzeBX+/MJmf6AwG7rUqBfONuzBCr+W3se/yDQr/c0a1UWxIh548MgLf63eiCb1a6FWddPs6Yd9P034L1d/Bv7my/4f/y1xjzEEcrhIDxwxCUauSPEftl949WkOpdgkqHgbDguxmS8ponAsCDbsMU7wVehjWYjcdpKrzNQSCuJF4hfyILUegfuNh4DGFt/YKr+mugzA51YOCltHqF57a5JBNv+Kcu3lhFz1Vw9tusELYUKkOrJAllVUE8G9RHwPFiaQEQi4Wdtph3FPKOIUDCu2aBR+TbAt8sRDgbASklrCjIcO4exWCnneuS3aJ/MgctXpLw4KzKX5u0hfCSrnckalnM7SVp8CeLGkDQKZRukn3HOmj0eHnkMk+V6fj8K0cd+gT/dO8b6Jp8+eY+S4GbhyXW3D3bRhbbRr2Tje8pzxEQgIH8Bmi0bxF5twSTlQvo+CKQG8zO6HK+gR0Kz0k9KfmuL8YaX/VSib96Tme4jdt6JwbRHcroEw1xN29qZEybVzkmZ9eHoRqmdX9ZpTeZ4HRd5VVP4U2DpW2Px76eXHvlEemQ/LJqNkkK3oi+LLr4FgiLHr8D0TSOsEKIKtjfC0Q3b45A6T/ORTtFyNkJJOK/wan/rDxAq/MYVfU1f3XIkUenGwpD8Cmca8h15NuTIlMGakWumn+yk/zsen/YeBovXqygtfP8xZ+CcatumpVfjd8+XFj1O+0y3G1+mJACn+Gq8+FMBLBN1iSVkCr8IeyQ4+tq/+2KNyslOb9/iF3I+dxfepSEDRUtjyk0edPaZ9ebNoLIJ2ZbWBctc0g08tNwJLDz+iXWMS6i88eonJhthATF8IWJhARiCQS7jlnCDMcEjIZWfZg6sw98El7PJ9gil3zqDi4TVahX9EkcpYIDbSsmQuAplqpZ9e7ZB+PcTfGSVmz18u3/TFyzcw4PJYWFtnE+Y/hfAq4DVI6deV/Plc8e/fC8ze/KvbBl+nAQIfFH8lrfgfWwQK86Xrxz8NPGGGeoSwqAC5gTe1V/rJpp/89itV0RmKb3oejMK9IhRlWkFFq+xGVuXlOK1zQFFfuNl8cQuqmzsNDl119yAgvPdIm/+dU4x+PVAe/EUd3KvDLKjyV9JrU3X3AFSPTumlaW7+d+gqHpwar7lN1XNgYCBGjRqF4sVTd99MqkLgzvUITChRHWR+s/n5A2mzP/rmcb18uhlXvDpmlakTJ50TMj6BTKf00yvN4+gAO7vsCA0N177hyMi3uHHrnvZe9yKfmwsePvFCXpe49nG65fg6HRCIrfiTqY/wwc+SMgRo82xqK/1k3uMVeCFlBsitJoqAZjO8ivzsmyAW9b8CbHJC+a84JyDKPdNhQR5+mo6GcvOoBEqKLLEnQHVqmTq4V2sxSdARhQj4Fz2rgk5KzGVxN0eUrNMuJiEVr5YsWYKAgIBUfALuOi0S2FSjLZY8uY4/Hl/H9Tf+2kes65gPY4pXRdu8hbVpfJG5CGQqpf/g0VMY/8McuZof+zWTYu/ilAdZs2bBu3fvcfnaLW2Rsxeugo5a1Svhp6nfg1b+WdIxAR3FX/oFJ3teCvrFkuwEyK6fIuJmtbQGBez62JLD2lm66/TnTbwfG338/TkLk5pKXYTHne1QiZV7o5Ilm9qvfoCn+DLwT4LFqU34P4Ci3hf/m9H8AABAAElEQVTA7h+MegRSrhPmnnToiOXku4DoMz6pVSo/LGrVii/7o6bv2KH2KvdRO+XO0gWBLwqVBx0UVfduyOsUCX4VHByMoKAgeHh4pAsm/JDiv7bMAmHazwvwv3VbtMPN65IHbcWm3JZN6gsXnHHdvIWHR+DkuUvYf+gEtuzYJ+udOX8FrT8ZgNnTxqJVswbatvjiIxKwSKZtKKT4Dz8ECLMBlpQjoNnM62hbCL5vYnw7p1yP+i1r7PnZXac+l9S8syBbfhHNWhWPbX7sZ1PUGQyITbzKXVPlHoDY+Xr3YgKv3C1W+0XQPguxUVe5U0T6ZWECmZhADjGBTalot02bNkX58uWxYsWKTEw4fQ09mTSotDvo10Fv0LXvUK3CX8DdFXNnjsfp/ZswftRXBhV+Gk327DZoLtx8zpkxDkd3rUNtscpPEhYWgaGjp+CfzYbtSmUh/iflCIj9GMkmrPAnG8r4GtIo/all4qP10c+BueJ7RR833cFDRtWlgHkqEWHXqFhkgUWLcQBtvCUvPyaI6uJ6uU9A0VBs1heTexYmwASSn8CRI0fw8uVLHD9+HJ6ensnfAbeYIgQy9Ep/SGgYuvT9Cp5ezyS8iuVKYeUfv8A+h3l/CAq4u2HN8nmYt/gvLFy6SrZFZkJWVtnQqW3zFHkx3Gg8BIKeIXoom+LEQyfNJWuUfo2v/I/9gM4fPPfwSv/HJm+4PxkQSyjy5DrXFFFU7wXkdINqu9g4K8wUTBLlexHddzYsuv0uzHy+hEps2GVhAkwgeQksWrQI3t7ewgmKNVavXo1JkyYlbwfcWooQyNBK/8jxM7QKf+0albFi4U9SUU8syZFfDUCp4kXw1bfqTV/fTpgFt7zOqFG1YmKb5HpmEFDUGmBG6RQuKoIDkQcSloQJaJRtR7tCCRdMoVzNFwb20Z9CgM1p1i6P8KwzEBAr/ORT36iIfTYWFP1aRM9VCm9b5oj8KtBmKiyafYfoo/NNnzCY0wmXZQKZlACt8l+4oHaOEBkZiVWrVqFPnz4oWLBgJiWSfoadYZX+v9duwuFjZ+SboBX+5QtmJUnh17zSlk0biM2832HsVPXqEU0sDm5dLc2BNGX4nDIEFDX6gg6W9EPgdbg3AsIeo6xbOxy+9ysCw7w+2sPntS+FEi5N4P36UqpsIv5oA00nHVk0GwNYZhN29upFE2OPrajYWfrRVx34GYgMMVZcP198FVCJeByKjj9DUWsgVCf+0M/nOybABBJNYPr06cL7YahU8hVicu7n54fffvtNHolulCt+FAIZ0qbf96W/CK6l9sPvlMcBf/3+M2zEJ6jkkk87tUHXDi1lc74vX+G3JX8nV9PcDhPIcAT+u/odaCPvtLaeaFF6ArJnc0jRMeawdkGHCj9jQqvbwnOPHXbeoI2jLKlKwCYXFA2GJuhnP/bzWTQXtvzRb6E8ODd2lkn3yuOLpfcejUmRSZW4EBNgAgkSIG89pOivWbMGX3/9NebNm4e5c+dKLz4JVuTMNEEgQ670k+19RESUBPzD+BHIldM+2WFPnzAKx06dh/+rQKzdsA1DB/VBTnv2BJPsoLnBdE/g2rMtWHayAzqU/wlty82Qh2fAWTzwO4rHr04LH/rnEBKpHxDPnEHnzl4ABRyqoohTXRR3boR8udRmVz5B17DuwiA8DbxoTnNcNgUIWDQeqY6mK/zomyKKUmKvVIEqYoV+idzEa0qdOGWiQmUQPor8q6gqgjKeXx2nCCcwASZgHoFcuXLh0CHh+U7InTt3YGlpiUGDBqFfv34yjf9J2wQynNJPrjZ37FX/QFatXA4thEvOlBDaxNu3eyfMXbRCTjA2bt2NQX27pURX3CYTSPcEbvhsBx2kmFd07yKPZqXGasf1JtIXvsG3EBLlJycAEe+CtHmxL7Jnyw07K2fYixX9fLkq6H05IAX/0L05eOR/QvYXuy7fpwIB4UFHetIRXStcy0AhbO2NiaJCR1lESaY9SRDl4d9gKQJ1WbSZApVTEdNaEnsPEJL4SahpnXApJpCxCGTJkuHUyYz1gj6MJsO9pT0Hj4Gi65J0ba82wfkw1mQ/9e7WEYuWr0ZU1Fvs3n+Ulf5kJ8wNZjQCj/xPCoX8JDZfGQkH24IicFclqbjnz10FbjnLoriwwTcmoVH+6slBhC/u+O4Tk4SXIgbAXdAXBcpjSVsEFM7FhQ/k3PKhFK1M9/ChOvc/QATkSpKEBUB1ZD4UYj+BIlbU3YTaNWmjcUINcB4TYAJMIA0SyHBK/8mzMZ/yWzdvmKLIyZynWaM62Ln3CK7euCMj/eZxVP9xS9GOuXEmkAEIBIZ5io29nkJZ/09vNA62Hshh5YJsWbLLdJVKibC3AfILACv1eqjSxQ3541fOKCMCbDmb/ryqaKgenjC9fAIllVvHQnF9u9xEnEAxvSyV51m9e75hAkyACWQEAhlO6T99Th3wpXTJorCztU3xd1S1Unmp9FNH127eQZMGtVO8T+5An8CfqzbAzz9AJnrkd0NTEVTNxckR85f8T76PsqWK6VeIdacSUTwfPnmKfML9KgVlY0ldAuTh52N6+Und0WaO3lUvbouB0pE6onp8OnU65l6ZABNgAmmIQIby3hMU/EZurCW+xYt+HL/gVSqW1b7Ou/cfaa/54uMR2LJjH/YfPoGXfsKT0h8r0XPgCNn5fHH98LGn0QeJevsWLTr1w6Vrt4yW5QJMgAkwASbABJgAE0iPBDLUSv+bkFDtOzh38Rp6DPxGe59SF9FKpbZpv1fq1WZtAl98NAIN69XE1LHDcejYaXw+fAIee3rLvjdu3YOZcxajcMEC+H3OVLmS//eaTVi7cTsqlCmJwf27Y98htRnB1B/nY9v6pWICcRIrRZwHCwtL9O/VBR3aNP1o4+COmAATYAJMgAkwASaQEgQylNJPnns08sLXD3R8THkdFPwxu+O+dAhcvX4HC5etwgGhsNvaZoerMNUhIXdiP0/7HoOGjZcTArpf8vd6LJw9GTv2HMbIcTOw8o/ZWLbyH3z+WTfQxG30xB9Brl7fvnuHkeNngrxA5XN10emNL5kAE2ACTIAJMAEmkL4IZCjznoIe7lplLzVeQ50aVVOjW+5TEAgKDsb9B0/QuH4t/PPXbyIYm5Xk0q5lY5nm6JBLelk6dvIcalatiIZ1a6BH17Z4+uwFyLyHJJ9bXpw5f0Ve9/ykvXDJqnYbeObDPhGZwf8wASbABJgAE2ACTCAdEshQK/3WVlY4tW9DOnwN/MhJJaAx74ndTtasMT/iKqjkqv2iZavh7fMCx09fkF8F3IWyT/JOrOxXLFdKXp+7eBWRUeoAb+XLlpRp/I+aQKuyU0AHCxPQJWD5u0r3lq+ZABNgAkwgjRGI0YjS2IPx4zCB5CaggAJtWjTC5au30KB1TxRwd8WPU0Yju40NihX2kCZAV05sxxcDemDwiImy+68G9fpom8KTe7zcHhNgAkyACTABJsAENAQUwl0hL89oaPA50xAIfhOCHHZ2YrOuQo5ZqVSJyMoRcqOvQqFARGQUxAn09YiFCTABJpAWCYwfPx7t2rVDrVq10uLj8TNlcAJz585FiRIl0LZt2ww+0owzPF7pzzjvkkdiBgEKrKYrpPzTBmCNaPYEaO75zASYABNgAkyACTCB9EwgQ23kTc8vgp+dCTABJsAEmAATYAJMgAmkFAFW+lOKLLfLBJgAE2ACTIAJMAEmwATSCIE0ad5z7eZd7Np3RA+RjbU1Rg7tr5cW++as8Lhy/NR5fP/N4NhZ8t5YvsFKOonkBz4kJEwnBWjZpD4qVyyjl8Y3TCAzErh194H4vT0Kn+e+0k1q25aNZJwESr945QbKlSqBCuVLwdIiZq0hsb9TFHCtRZN6qFqpnEHUxvINVuJEJsAEmAATYAIZmECaVPrDxYbK5yKw1mPPp7h7/zFaN28oPKxYG30N0e+jER4RGW85Y/nxVvyQ4fvSH8FvQrF7/1EUEjEBSpUoipAw/UmAsTY4nwlkRAIhoWHoPmCEjIFQsEA+GdQsW7as4nekCNp1G4wqFcti2k8LMVsESuvasZUWQWJ/pyLFRut3799r24l9YSw/dnm+ZwJMgAkwASaQ0QmkSaW/VrVKoGP1P1sx5cf5MnoqeVRp/clAlC9TUk4E/vh1GhavWIe9B4+hXOkSWCAirAaKiLh37j2S76xLn6HIL1wynr90HaWKF8H8nycZzY+OjhZRXVdj264DqF+7Oh48eoLt/yzT/gzMnPStvC4slP5PhOLyxYCesr+vvp2CC5evo0v7lvhu+CBcu3EXS1eux43b9+WEZeLorzB51m/w9w+UExl7sYm0fp1qWLX+P9SuXhnzfpyo9SKj7YwvmEA6IvDEyxthYeHy96Jpwzri97SEXOX39XuFXiLQ2fSJI9Hr81E4c+GqntJv6Hdq07a96Pfl97J+xzZNEa1UYuXaLQgJDcXQz/ugc7vmuH3vIerUrCKiKh/C+k07YS2CsdEiwYiv+qNjm2ZG84+KIG2/LV4pNm/b4L1YLKBAbVSPhQkwASbABJhARiUQ8509HYyQVv0poNKnnVvj5NlLUglYOm8G6A/4lu37EBwcIv/Y01CuXL+NF77+mDJmGI6cOItDR08bzd+x5zD+3bJLKO6fw/PpM9y888AolV8WLBfRX60x+4cxWLbyHxw8dhpbdx9AyWJFMHrYIPy1eiPIvOGZj69USr4e3AeXrt7ElWu3MahvN+zYexj3Hz4x2g8XYAJpmQBNxmtVr4QvRk5Chbptcej4GRQpVECu/JPCP/DrcTLacZMGxl0LkjtV+j3PldMexYsVwoYtu/FZz05yIk6LADQ5v//IE29CQkUk5hCQ2V7zxnXl5H/2/OUSU0L5VH/Y9z/APV9eWY8m7NQnCxNgAkyACTCBjEwgXSn99CKGD+mLnl3boVL50vD08sGQkeogSkEG/mjTajzZ/To65EJA4Os47zF2PikPDetUx6edWqNT2+ZxysdOiIp6Kycc/+3cj+8n/yyzHzz0lKv324TiP2fhnzKNTB9Iqgj743atmkjXkPRcLcVBEvX2rTzzP0wgvRJ4+/ad/CK3a8OfYrI7UH5hm/bzQqmgUx5NdikA2mYxOTdFyH3q3JnjULSQh1T8J8+aj537DsuvCRRTQVfo97t7l7ZoULcGyFwotsTOf/jYS7ZD/5d81qOznqvW2HX5ngkwASbABJhARiGQ7pR+2+w2kv3iP9dKZf7gtlXxvossWSzjzaOM2PkVypaUq4b0ZeDg0VMJ1qVMK6ts0lZ5cL/uOLB1FcaOHIImDWpj0sx56ClMGn6dNV62oYl/RsGeNELmShrRudQk8ZkJpCsCjz29UbVhJzx84oW2LRqjTMlickMvmd7UafEpXJzyoKwwwwsKfmPSuHLY2cpy12/dk2Zwq5b8gj7dO8k0ze+TpqGsWbNqLg2eY+cX8sgvy5H5IO3PIbMkFibABJgAE2ACGZ1AulP6NS+kWuXy0mynVdeByOviJBUMY8qzsfwOwn6YbOyHj5kOv1cBmq4SPA/9vDe2C7viyvXbS9MiN1dnaYbw07ylmCU8jJAYWn3UbVSBmAmAbjpfM4H0QqBk8cJij0sPjP9hLqo16gSfF76YMXEUmjepC/scdqjbspswa7uBUUMHGB2S7m8DbQQuIPbm0B4d2r9DQvsEkiK0wZi+IpAJ0pK/1smmLBTp9r/CpKDgukyACTABJpCJCCjEqpn+t/J0NHiy6aWVf0vLhFf0TR3SiTMX5Ybc1s0aYv4fK6Xiv3n170ark7lBqPDiQ8qNRl4HvUHuXPaaWz4zgUxBgDbdBomffTKp0Qj9F/Mq4DXyOOaG7hcuTb6xM/1+0e96rpz6UZSN1Ysvn8yNfhO/32VLFUN28f/HgKFjsXrpHLkxOL46nM4E0iKB8ePHo127dqhVy/hembT4/PxM6ZvA3LlzUaJECbRt2zZ9DyQTPX2a9N5jKn9dJdvUOgmVKyE2Da75d6vwBrID+VzzYsLoLxMqrs2zsFDoKfyUwQq/Fg9fZCIC5INfV+GnoZOi75THIdEU6PcruRR+egha6c/n5iIn9iHCtKdvj06gL4csTIAJMAEmwAQyMoF0rfQn94txzuOIpb/NSO5muT0mwATSGAFyI0oHCxNgAkyACTCBzEKADVkzy5vmcTIBJsAEmAATYAJMgAlkWgKs9GfaV88DZwJMgAkwASbABJgAE8gsBFjpzyxvmsfJBJgAE2ACTIAJMAEmkGkJsNKfaV89D5wJMAEmwASYABNgAkwgsxBgpT+zvGkeJxNgAkyACTABJsAEmECmJcBKf6Z99TxwJsAEmAATYAJMgAkwgcxCgJX+zPKmeZxMgAkwASbABJgAE2ACmZYAK/2Z9tXzwJkAE2ACTIAJMAEmwAQyCwFW+jPLm+ZxMgEmwASYABNgAkyACWRaAqz0Z9pXzwNnAkyACTABJsAEmAATyCwEWOnPLG+ax8kEmAATYAJMgAkwASaQaQmw0p9pXz0PnAkwASbABJgAE2ACTCCzEGClP7O8aR4nE2ACTIAJMAEmwASYQKYlwEp/pn31PHAmwASYABNgAkyACTCBzEIgS2YZKI+TCTABJsAEmAATSB4C773e4d2Td8nTWDpoxaZh9nTwlPyIR189yzQQGuZxN3usrPSbjYwrMAEmwASYABNgAs8beWUKCM5/uQENM8VQ0/0gp905g8yg+JPC37DeJ2a/LzbvMRsZV2ACTIAJMAEmwASYABNgAumLACv96et98dMyASbABJgAE2ACTIAJMAGzCbDSbzYyrsAEmAATYAJMgAkwASbABNIXAVb609f74qdlAkyACTABJsAEmAATYAJmE+CNvGYj4wpMgAkwASbABJhAchKwsLNAtgrWyFbOClnyxqgmynAllK+iEU2H//sP52gog6KTs3tuiwkYJZDfJgfy2djhRWQYvMLfGC2fFgvE/GalxafjZ2ICTIAJMAEmwAQyHAGritbI3toOVtWsQddZCmY1a4zKECXe3ohC1KVIhO8LRfiuULPqc2EmkBABJysbtM1bGC1dCqJCTieUsMsdp/iD0CBcf+OPfS+9sP3FI7yMCo9TJq0lsNKf1t4IPw8TYAJMgAkwgQxIIFsZK+TomxN23eyRxSNGyY/2eY/wnaGIuhKJqMuR8a7iWzhYygkCfRGwKm8F69o28sg5LDfee76Db+dnso0MiI6H9JEINHP2wLRStVDLwVX2uOelJ1Y9vY2At5HiiMDrt1HIldUKjtms4SgmBlRuWaWm8rgU5IeZ987hv+cPP9LTmt8NK/3mM+MaTIAJMAEmwASYgBkEnBbnhf2X6tXSt7ejEPxrICKOhiHybIQw2zHdVCdsS4i2Vwt7C1hVtYFt5xzI3swW7x681ebxBRMwh0CpHA74pWx9tMlbCOde+6L3xT3YJlbvQ98bD0Bna5kVrUW9LwuXx5Ya7XDY3xvfXD+Km29emfMIH6UsK/0fBTN3wgSYABNgAkwgcxLId9wD1vWyI0oo+IGT/RF+ICxZQCjfKBFxOEweydIgN5IpCXxVuALml28olPQAtDmzFbt9n5jFISz6HTb63JdHU+cC+LFMXVxt3Bvf3jiG+Y+umNVWShdmpT+lCXP7TIAJMAEmwAQyKQHHOS5S4Q+eF4hXo14mKwWrKtawyGGeE8J3wgyITIFYmAARWFKxKYYUKoc/nlzHV1cPxQsld1ZruFhnl2Y9ZOLzMipMmvzErnDQ7ykO+q3Db2ISQUdZ+zz4/MqB2MVS7Z6V/lRDzx0zASbABJgAE0jbBE6fPo3jx49jzJgxUCgUZj+sbTs7vHv0LtkV/pxf5Uae3/Oa/TyRJ8LhU9/L7HpcIeMR2FmrozTnmXT7NGYIW/zY0smtKDq6FhWmOwWRJ5tN7Gy8fheFPS+fYIvPQ2x+/kAvf4Qw76GNvbNK14G78PjT6vR/evmpdcNKf2qR536ZABNgAkyACaRxAleuXMHs2bPx33//YdSoUfj000/NUv6z5Msi3Wwm5zAV1grknuyE6JfReLPktUlNZxMbf2075ZB7CEyqwIUyNIE55dT2+2NuncDs+xf1xkrK/kyhrJOdP8lesZn36Ktn8IkIlYo8efbJZ22Hennyoad7SXmQJ58Jt09JEx9NYz/eO4+o6GjMFX3NE6v+I8VEILWFlf7UfgPcPxNgAkyACTCBRBCIiIhAcHAwAgICtLVVKpX2Wvciseldu3bF33//jfPnz2PEiBFYsGABhg8fjs41Ouk2H/+1+DpAnnryzHfBq2+Sx7wn59cOsHSxlO0FLwiMv2+dnLwb3OXdm6VBOql8mRQC4eHhePPmDV69emW0mfh+/mJXTGq5t2+Nm271LVAa3xatgtXed+Io/MsrNcOggmXhLzz1fHvjOFZ43USwWNE3JL88uAi7LFnR36MMxpeogQ3V2whPP4Xx2aW92uK/PryE8jnzYESRSrgivPuQJ6DUFFb6U5M+980EmAATYAJMIJEESpYsKVfhHR0d420hIZOc+PJipwcFBcnVfV9fX9Dx4MEDVN5SCSZZ03+wCMo53AHW1W0QMMkfEQcTv5HXwtYCucY4Ivr5e5iq8FuKYF+2n+RAhNhA/O4Re/iJ94fFzIyiRYti0aJF8iuQKVVj/1wZqmNKGaoXX7m3n7Uw1Kw2zdXaFkuFi01yr9n3YoxybmOZBVtrtkdz4bJzmecNkHlORPR7bb34Lsi7z8JHV+Uxt1wDjCpaGdRHh7PbtPX7XdqHcsK2f0nFJtjv5wVfEdwrtYSV/tQiz/0yASbABJgAE0gCgSFDhoCOlJSQkBBUr14dtALr5uaGFi1aYOTIkShkXwheMMEfufjwQMp25JkIYZKTB24HCuDtrSiE7wlF5LFwmR4dYLrLTpo8WOax/D975wEfVfHE8d9dEtIbgQAhQOgdpPfepKkIgqKIiBQVRRQLVhAQ/yp2sIPYUEAFASlK771I7yQkhISQhPR295/Z4x13IeXS24yfl7e3b9v7XiKzu7MzCJ8QavNre4z1UmWj59tmCmRzw2W84EMPPQS+ipP02LYUSMx8N+e9Jl3gpLfD4wfXWQ17Qcu+SuF/5fh2/O/MPqtntn5gbz3n46Iwr3lPLGzZDw/uW22uOvbgehwijz7s2WcMTQKKSkTpLyry0q8QEAJCQAgIgWJO4KWXXlLmG+PHj8ekSZPQtGlTNeLUy9mbUaiCNFkwJhtx461w3Pw6Ep5TfOBGfvW9ptLuBF8kqUGpSD5Mgbkoui4H6DLcvD0JSL2aipTTptV59tTjNbU8Ui+mqLZUZRt+eIz3Qhq1E7f8to9/G6pJkVJGoLV3JTxSrSG+oZX8o9G3TZJerNsaD/rXxwdnD+Ra4ddQzb9wBJUdXfFGg3a0m3ANbALEcjg6HAsvH1emQJ+SG0829SkKEaW/KKhLn0JACAgBISAESgABNt9gu/5evXrlbrT62x5/UinybsTUa+oq16AcnPu5waW3K5y6usCFvPzwlV5if76Ja48Eq2zPKeXBUXlz4vqTvQfZV3dA5IzbSl76PuRz2SAwmezqWdhbjybVnN3Bq/9b6KDui8e2quxuFfxVVF6tTGhivNWqPed7UlTeFWQOZCnD965GGHnsefPkTrSnSL3c7uIrp3CFDgCz8EFftv9/lsZRVKv9ovRbfmOSFgJCQAgIASEgBMwE7Ozscq/wcysW54rdhnvA3t8eN7+NQvKpZLpuIPoT00Fcez97deDXPsBBKel6Z9OJATYFYtF726ndAV71j1kUrfJs+eEx0RQFmHcZRMouATs6UH5PldrYQNFy2ZWmJu807qSSk45s0rLg6+gCVvw1CUy4c4eonF5vVYbLOtHfiibPHNmIE31GYxZ5AWKbfparZMu/9XowBlH0Xp4KW/xpqOeF8UOU/sKgLH0IASEgBISAECiDBIwpRujKmVb7feb4wr6WA3zmVkLcnzHK3Wb8etOhxlQ6mMsXyPY/I/HiVX4y7wknMyFbxc7XHi4DTLsHNYLr3lGNzYSCml2AIdZwxzPJKF0EWIn3sC+Hv66eN78Y+95nc59lwWcpGu/tnSAySFNlHtr3N369ctpc3jIRnpQA3Z8fqSwOwqXtImhlTsdGYumVsxhNnoL4UHDULQ9Aq0IvoCu5+uzo44cdESFa8UK723T4vtBGIx0JASEgBISAEBACpYZA0v4EOHVwhkNNB1xpfxFRH0TAEGlQPvNdBpoU8uxe1o5MeljpTz6WhNjfbmZX3Pw8LSwVMd9FmQ4M86HhW5fhpknJN8QZROE30yrdibsrBagXXElKtya88s+yKJ/caKb3lvtDkMk95wBa2deElX4WbTxafmHdZaW/sEhLP0JACAgBISAEyhiBG6+Ho+quAPhtDUDovUGIeDFMXU6dXWC0cYXd60Uf6Nz0uEHuPnMqYU9ctariPsYLvt1ckHImGSG9A62eyYfSSyDAxVO93MW426ZhmuKtKeLa25+4eQMzTu2m1f/b8S+0ZxndOXgXr+TfTLV2B/t36EUkGtLQnyYcvwSdUlVPxpjM2eq6mszOMmqvIPNE6S9IutK2EBACQkAICIEyTCBxd4LymuN6nzv8D9RE3O8xarU/cfttu+qs8LAtv+dkU2RUr+fKgy9L4cPB1x42HfS1zM8o7f6IJ3wXVEHqhRQEd79MEX2z98OeUTuSV/II+JHv/FALW35+g+ou7gjKwF7/REwEpp/cZfNLstLPV0YSFB+Dem7WCj73WdPVI6PiBZ4nSn+BI5YOhIAQEAJCQAiUTQJuD3qAFf6Uc8nKbabrUHfwlRaWhvhVMeBJQfIJOtR7lFx1xtxpW6931pE5UBrsnO3hRCv0GUnYuKswxt9Z17Ks2wMe8P3RT7kHDe5BCj+58BQpOwQ4YBZ71rEUPrAbkZxomZXv6eDEWDRyt56oBtJEoK6bKXZEvneYTYOi9GcDSB4LASEgBISAEBACuSPgPa0Crain4UrbS0p5d2zjDM8JXmB7fvfHvdSltczmPhyoK+16Gq72DUTajTR1uPdS1bNaEfOdD/XWvFkfCRvislX4edJRaUlVpeiH0Ap/aqCNMQbMvUmipBNII4N7vfKZc/tNDJRnryvYo63cRzkKBmYpPBZHfdGo30XTq+XbS1oICAEhIASEgBAolQQc6pRD8ukkpfDzCybtS0AYXSyOzZ1QriVdjcrR5Qh226mvYK/SxtSsHRpqh4Dj/rjTnaJq/NYP10FuqPynv9pZCO52GSkXrO2uLctKuvQSCKEV96YeFaxekF1oNnC3Nr2xKpAPH9isKIT6sZSqzm60w5CxlyrLcgWRFqW/IKhKm0JACAgBISAEhAB4cdWxhRPchnkgdpm1552kIxSBl67ciNtQsommeUFsFkq/c09XVPrdHwbaMQjpdgkpZ0Xhzw3r0lCHzWwsfe/zOwVT0KzO5DrT1c4BcWm3d38auftguH+9O1x5ZsaBDwRzMK4PKaJv+sO81V08sD3C+swJTwQOFlFE3oLd18iMkOQLASEgBISAEBACpZ/ArQX7SkurwuddX+g98kft4JX+RPLpnxaasW2+cw9XVFldDcY4ozq0y8HARMouAVbwWZp53l7t5yi8LIOr1FJ37Ucjj/J4q0F7NPHw0bKyvLPSz+U5Sq+l9KN8Fzt7bKSAYJoE0CTAmfIORF3Tsgr1nj9/fYU6ZOlMCAgBISAEhIAQKCkEkg4mInFrPLxe9kFASF1U+LSyWv3P7fhdB7tBRwd843633jnQ2mN3oFVWVQPSjAjpcxnJ/5mi+mrP5V72CHAkXJaBlW8r+CtuBeriAF35IRT010o4MBeL1g+nB93qf19k0Sj9Yt7D34KIEBACQkAICAEhkP8E6NAie8q5OihImfh4veIDz2e81ZVykrz2nEhCanAKUi+nIOkAmfscIi8+t4JnZTYY1yEmd4exy+6053dq7wy/NaTwG0jhJz/83KaIEPg3PBDxaamkdNfEnNN7FRC28/8nLJAmAjXRxrsy9kWGWoFa3GYA+LocfxMB676zesbRfMMHTrTKo191szSh8wMP+dfHHmrz1C3f/PxQ21VYF3bJXLYwE6L0FyZt6UsICAEhIASEQFkiYLH8yTb9fNlXd4DLADe49HOFcx9Xm0x+rj8ViugvIhU59sbDynx6LzyOdCi4yvrqgF6HkH6BSNxTNIcly9LXW1LeNZEU/n/CLuNeisLrTwdpr9wy95l2fDv6+I7ER027ofPW39TrhCclQDP94YzQRGtXn5yXYjRYleG8JArEpcnHzbqr5Av/bdGyUNHRGX19a6iVf+6jKESU/qKgLn0KASEgBISAECgLBCyWP9lbDwsf3r35ZaS6+LNjayc41HOEQw0H2AfQRZMC9s/PwsG32Md/0lGTiQ4fztV765Heaw+37behBnQOOlwdGARbg3+pTuRHmSDw/eUTSul/p3FnPLp/rXpntq3/PvAEHiNTnA9J8X+elHRW+LtvW5olk2iKwJtZGW6/V8Vq+PXKaeyICDG383bDjir9zaX/zHmFnRClv7CJS39CQAgIASEgBMoSgVu2zhUXVlG2/HwAN3YxrfovvakO4ibtJ7MeumwR1yHuqpilJ6ByDR1J4a8OvZceV/sHIWFjHBzbOivvPuwiVEQIMIHlV8+RJ50QjCIb/k/OHTIfpn3q8Aa08KyIKXVa4hoF8PrfmX25BvZ8nVaYVq8Njt2MwBMH/zG3w+5CJ9ZshrOxUVgdetGcX9gJOchb2MSlPyEgBISAEBACZYRAyvkUON7lBJ2LHjfeCFdmOU4dnOkwbyX4/M83xxTc7ndX5wBSzpi88ZRrUA5+W2pA72OH0HuCEL82Fva0Y+C/JwDeL9nmfSXHg5AKJZbAc0c3q7F/07I3nMiLDksCmf4M3rUCQQkxeJdW6eff1Ut52FEPbfzBbXG9uU27KtOhQbuWW7kB/aZlH9XSd5eP2dhiwRQTpb9guEqrQkAICAEhIATKPIGo9yNgR0G3qqzwR+KWeFxpfRFXWlxUE4D0JjrZweLVe24r7nfTAV4O/OW3qQbsKpLCP/QK4lbGws6X+lrur5qKnncjuybleRkjwOY8n5w/RCv7vvjuliLOCFjhb7t5Mf67eR1P0or8xX5j8Uztu+BhXy5LQuymk3cILlN5rsf122z+RR3+1SouanU32tFBYZYX67a+I0iYVq4w7qL0FwZl6UMICAEhIASEQBkkEPNTNOLXxcG5tytqXKqD8m9XRCr51o+cdR1xK+70vpMVIl7lZ2Gl36GmA6puD4BdZXtcGxmsbPw9n/JGtaO1UI52Fm5+HYWEzXcewMyqfXlWNgjwaj978xnp3wAvkymOJqEUObfTlt/UpKCSows+bdYD0YOfxuqO96kJQFtS3DmQF98n126BNR2HIGrQU+osgC+V58kE1+d2NJlKSv6j1RvidGwkem//nc6Y67C163C08qqkFSnUu85IUqg9SmdCQAgIASEgBIRAiSbALjYvB5zL9h3cHvRApcVVweY4KRdTlMcerpTwTxxifyW7/j9jYIi87fUkqwarn60NHXnmCe5+GVW31lCHfsMeC0HMomhVrcpKCsZFvvmdOrqo1f+QbpeRQPEB8iq+C/zgPsYzr81I/UIg0IMO4G6+FXQrq+7Kl3PCvu4jUcvVE2+c2IlZp/dYFecgWi/UbYX7/eqCI+hmJuwF6I+Qs/jo3EFcIteelvJ6/XaY2agjwuicAO8isOvP5nR2YHOXB1BOb0eTgGXYdeOqZRWb090r+GMTtZNTEaU/p8SkvBAQAkJACAiBMk7AVqW/2uFasKtkh8BGF5Ryz955PB73gtsDHnAge3wWdr2ZcpYmBedS7oiwG/trNDiabrlGjqh2vBZifoxWSr1DbQeEj7+Km99Emb8JjvbLPv55F6D6hTqIWx6D0CFXzM9zmxClP7fkCr+erUo/j4xdd67scB/uIkV83oUjmHRkY4YD5ii+dVy9UMnRFTxZiExJVKv5Z+hQ7jEy58lI5jXviadqNcdVWvXnMfFKvyZ8qJcVdic7OwzaudymSYpWV7vnVukX7z0aQbkLASEgBISAEBAC+UqAlXOOyKut5qdeSsGNN8PVxYdw2ed+ucaOsK9djoJ3uasDuZYDSDqcqJR+16Em0x73UaYV9+uTQq0Ufq6jBfXiHQWeSLBXHxEhkBkBXqXvtOVX/EIBuJ4mBb1D+Sp49cQOrLt2yarK0ejr4MsW6V8pALMbd1JnBgLpnEAX8v0fGG9txsZ2/9zv9m4jsLbT/RhIiv8GMjcqDBGlvzAoSx9CQAgIASEgBMoiATLHcerqolx1crRdS+EV/OR3IyyzVJrt9O287ZQLTt4BYNHs+Tl9fco1RM+7vXLKeZbiOthN+fpnz0EiQiArAhyl977df6lV+dmNOmEt2emzn/75tPLPrjXj0rL/HXKzd1D+/5+s2RydfPzM3aWR9bwhEwt6XvnvsnUJttCK/7+dh+JeGsNfV8+b6xZUQpT+giIr7QoBISAEhIAQKOEE0tLSsHnzZvTq1StPb1JlVTWEjb2qXGpm11AaHfTlSxM2CeLDuSw3poUh+uPMvfJ4jPWCz9yiOSSpjVfuJY8AK/k/BZ7Emw3b4wXytd+NbOZZVpHiv/NGCG4kJyIiOQGRyUnwIo89FSi6rg+Z+nT2qQpe3ddkLe0SfHD2AJp4+ICj8m7pMhzdti0xRwDWyvH9VMwNpfizjf+K9vfggb2rsCz4rGWRfE+L0p/vSKVBISAEhIAQEAKlg8CkSZPw+++/Y8iQIeB006ZNc/ZitNKZejkVenc9qqyphsRt8Yj+NFIp/4ZYg01taZF8I2deR2QGOwN6Vz3cHvKA55TyyvY/9UoqjMnio8QmuFLITOBmajKm/rcVM0/twd2kyA+oVBP9KwdgUOWa5jIZJXi34Kegk/iQlH3Ndp/NdXTkqecjivK7resIdCBzHkuvPlo7Z2jFvzOZALFHn9/aDsSDe//G0uAz2uN8v8tB3nxHKg0KASEgBISAECgdBGJiyH9527Y4deoU/Pz80K9fPzz33HNo5NnQJu89tWLrK9eZ7GXHe3pFeD7tbQaTdCARHJ03mcx+2Hafbf8zE4f65ZByOhk6Z50K9mVfzQH2Ve3h2NIJrsM8oHPSwRhnQNTcG4h6LwJVdwRA56ZHYJ3sPQxl1qeWLwd5NRLF/56Tg7y2vk0V8t7DXn74quHsAXu9ydt9eFKCiuq7OwsPPByhlwN2cSTerrTin5Hiz+PgtnlywJ6CxlIk3wXZBPGSg7y2fntSTggIASEgBIRAKSDw1Vdf4bfffoOPT+aRZ3m1MTPJ7Fn6/NTUVLVqGRISgoULF2LlypXY9edOZN6yRY+3+k+7ngY+fMtRednm3mUAXX1c4djKZLaj1WC7fyN54MlI7EjJ54BclpJ2LU159In/Oxbx6+NgjM+4rmUdSecPgcWLF+Pzzz9Xk8HMWkz/u2RZLr+fcXuxo0yRby37yWuaPfDwtSMiJMdNfXjuAAww3lrxH67MeTJS/C/ERaMj7Qawjf+3FDTMkVx6fnHxSI77y66CmPdkR0ieCwEhIASEgBAohgR49f2ll15Cmza3AwxlFnonL/kDBw4E169cuTJq1aqFZ599FjX8ayAQOTt4aFfeDmk3SEn/IVpdjJSVfuduLuS+0xEONRygc8x8KpEWnKpW+9ldaPKxJCRsilOefYrhV1MmhnTu3Dll8tW3b1+r983L75plQ5m1w2Uyezb0+AYg8w0jy+YLLf0x+fB3trPHO3RQeCvZ+LNHn2vkuz+9sB9/NvXhFf/5d/VUdXjSkJ8iSn9+0pS2hIAQEAJCQAgUEgFnZ2d4enpmudKf16HMmzcPFy5cUCY+zz//PIYPH65W/VnxtkksdPiKX1eBc3cXFS03ZjH53/8vCWziw5dIySPg4uICd3f3Av39yymVcmetd4JyWr+gys85vRcOOj1mNOyggnOxqQ+bB6UXdiPKij8f7mWzoG0RwdgXGZq+WK4/mwyTcl1dKgoBISAEhIAQEAKllUCLFi3w8ssvY/fu3RgxYoRS+HPyrikXKbBWU5O//BTy0a9z0cNrmg+qHa2Fil9UzklTNpflIF0OdcvRAWIbJyY2tywFhUDuCbx9arc6JNzAvbxa8a/o6JxhY8Gk+LPvfhYO8JWfIkp/ftKUtoSAEBACQkAIlCICHTt2VEp/VvbXWb1u3LIY5TO/wieVEDH1Gi7XOKv87CdsiEPKGZMP/qzq5+aZ70I/mlzoELfsZm6qSx0hUGAE3jy5E3PO7AMr/pvJ1CczxZ+9+iQa0sCHiPNTROnPT5rSlhAQAkJACAgBIWAmcOOtcCTQAVvPZ8vDf1cArfo7KT/7Ib0DEfVR5v72zQ3kIOE23AM1zteB6/3uiP35JqK/yDyAVw6alaJCIF8JvHp8O/5Hin8jUvw3dn4A5cnff3oZ6lcXTnSYdysFCstPEZv+/KQpbQkBISAEhIAQEAJWBEL6BcLzKW+Un1kRfhuqI/l4EuLXxCJxS7xy2ZkWkWZV3tYPDjUd4NjaGc49XOAy0BSFl+uyh6DIWddtbUbKCYFCJ/AKKf52ZOM/tW4rbCL7fXY1ygHAWBrSZGAeHeSNobgBCy8fz9exidKfrzilMSEgBISAEBACQiA9gej5kYhZFA2PJ73hOckbXlPJzShfJKlBqXSYl/z1H6GDveSr33Az40mAfVWKzNvcEeWaOcGprTP03reNFfhQMCv7MT9Giy1/evjyuVgSePHYVujJzejzdVriQI+H8erxHcpf/yv12sDN3gHD965WrkLzc/Ci9OcnTWlLCAgBISAEhIAQyJCAgYNnfRChLscWTmp13rGNMwXbcoTrfe7qyrBiBpkpp5LJLz95/tmbgNjfY0TRz4CRZBV/Ai/8twVXEmLwTuPO+KVNfzXg4zERmHhoA7aT5578FlH685uotCcEhIAQEAJCQAhkSYCDcPFlKfbkp9/O1x72leygr2hPaTuAFv3TwlKRGpIKA5kBpV0zpS3rSVoIlGQCH5Eff77aeldGdEoSTtMh3oISUfoLiqy0KwSEgBAQAkJACNhMgF1s8pVkcw0pKARKD4G9+eiPPzMqtw3iMish+UJACAgBISAEhIAQEAJCQAiUaAKi9Jfor08GLwSEgBAQAkJACAgBISAEsicgSn/2jKSEEBACQkAICAEhIASEgBAo0QRE6S/RX58MXggIASEgBISAEBACQkAIZE9ADvJmz0hKCAEhIASEgBAQAukI+G2qkS5HPgqBoiXwVsMOeKtoh1Csexelv1h/PTI4ISAEhIAQEALFjwC71+RLRAgUJwLdK/gXp+EUu7GIeU+x+0pkQEJACAgBISAEhIAQEAJCIH8JiNKfvzylNSEgBISAEBACQkAICAEhUOwIiNJf7L4SGZAQEAJCQAgIASEgBISAEMhfAqL05y9PaU0ICAEhIASEgBAQAkJACBQ7AnKQt9h9JTIgISAEhIAQEAIlk8DxU2exYvW/avD29nZoWL8OBvXrAZ1OVyQvtPbfrTh45Ljq28XZCV06tkGru5rg1JkL+GPlOpWv1+vRukVT9OjSDnZ2dkUyTuk0ZwS073XMw0NRpbIvvlywGJV8fTBkUF/8u3kn9h44gucnPY6kpGTM++Ynle/t5YFV6zbhwKFjaN/2Ltw7oA+8PN3NHZ85dxHLVqw1f67g4417B/ZBpYo+5jzLxEfzFmJA326oX7eWZXae0rv3H8bWHXvx0uTxCAq+CmcnJ/A4Zn8wH/16dVG/p3npQFb680JP6goBISAEhIAQEAJmApcDg/HtD0twNTQM23ftx+SXZ2LG/z4zPy/sBCtRi39fhbDrEViyfA0eGP0M/l6/GYFXQszj5PT4ya/huVdmFfbwpL9cEDAYjHj7vc/V97fib9ME81LgFXzyxfeqtcXLVqpnrMQfOnpCpT083PDC63PURK9unQB8/vWP+PiLhVa9B165qsoG0Z1/fz+jMiPHPmdVxvLDZ1//gEv0+56fkpaahviERNXk86++gx9+/VOlExOTkJKamueuROnPM0JpQAgIASEgBISAELAk8L+3X8Zfv36NJ8c+jB8W/4l/Nm1HvyGPIfjqNaVQcfrwfycxdNTTeG7aLHTsOxxjJ01DbFy8ev7G7I/RpscQPP70KyqPV+YHPDDWXPaTLxdhxJjJqt6e/UdU13+sXI97HhyP+0Y+ad5t4Af1agfg4zmvY9uaxWqV/+vvfzMPlcf52XtvYmDf7gghRU+k+BM4TIp86LVwNGvcAEtpIsfSrVNbmshdRcSNKOw9eBSuri44dvIsjtDvWM0a/vCt4INdew+he+f2eOqJh/HlRzNVfkZv+85bL+Cz99/C4w8Pw8XLV5CcnIL1G7er39XuA0di+ep/rKr9+Oty9YwnvAcOH8OE515Xv5dfLvgFCaSsR9+MwSxaqeff5xdem6N+R7mBjH73b0RF4+Tp82piym3xBGb/of9w4vQ5REfHqAkB71zw38uTU95Uk5rM2rIa5K0PovRnREXyhIAQEAJCQAgIgTwTaHVXY9VG5Uq+OHvhMraQ6cKOPQcRQkpb4wZ1ldJyNTQcb738DDZt240NZJqxffcBxMTG4quPZmHz9j344691SExKUiY59WrXRNNG9dSq7oj7B8KdlLtFi/8AK1xTaSV3+JCBuGdAL0x5dbaaYFi+AJvusGnP+UuB5uwm7fujbsveWE2r/3f37mrOl0TxJfDX2g1KYX/x2SeUUs4mZR3atlQDXvPPFsTRxHHUiPtw9Ngp8ISwb8/OcHCwxwuTxpIZ0C9o1PZufDhvAQKq+2f4kq/OmItJL87Agp+XYfxjD8JoNKpdgoFkpsa/c7wCH379hqrLOw1vzfkEE8Y8hGr+fpg45Q34lCdznDeex3uffIN/abK7cs1G/PbHarz47DjaGbiiJiNcmXch0v/us2LPCn7Hdq3QoF4tNfaG9WrjzPlLuBkTqyYDXy5cjHfefAEuLs6YQhNmHl9GbWX0cqL0Z0RF8oSAEBACQkAICIE8E+CVVxZebVf21pt2KEV+6D39lCLGzx64r7+yV/Yp70UrtZFo0awRLl0OxoQpr/NjRNFKqSb3DuyNrrSqyyu59w/ui+ZNGyq77e17DqgiIx+4B48+eJ9K76LJRXphZY3b12Tlb19j3R8L1Ur/nA+/RGo+mFBobcs9/wmkpKTid5oEupLCu5NW7llWk50+2+bzhG4hKer8/bZp2RS79x0Cm3d1bt8aaQYD+Hdj08qfMHf2NPqe05RizxOE9NKwQR3Uq1MTTo7lEBoWjiM0eeByH81fiPnf/aKK8w4AC58tYOGJ6LkLl9ROw0NDB9H5kPY0EWlBv+t71Ri60+/s8CED1N+AqnDrR/rffe0Zv4+ri4uaQPDvuiZbaBLcvvVdtGPRDg8NG6R2Ny4HmUyMMmtLq8t3UfotaUhaCAgBISAEhIAQyDOBE7T6yqv0rCh17tAajqRA8Qo857FN/eC7e5r74AO/ljL/259J2fHCvyt+sMxWaR3ovwwOBd9Fyj/LHlLyttFZApZmTRqoe2xsHI6dOKMOaf65aj06kjKmSQLZT8fFJ6jLUrnSnsu9eBHYvnu/UsD9q1ahnZxQ1K1VQ5n4sFLfs2t7tfLfonljNKJdJDb3YWnVoglSabLQd8ho/Lz0L7WKzoe2WZHn1fP0MmrEvXh2wqN0AL0nHQg+SofRa6siH73zGpYt+kwdsq1ft6bK492DypUqYvbcL2j3oZqajPJuVmBQCI4eP42WtNPVnH4PefLBO1n/bt5h1V36332rh/SBTYsspTVNZg7/d0Id8t26c5/qrxqxYMmuLVVGlZQfQkAICAEhIASEgBDIJwLDH3tWtcQK/3tkN8/SqV1LpaTwCmqLZiazH/Ug3Y82LZvhtZlz0X+YSaEKDglNV8L6I3vfYVOhiY8/hPFkT83Cdtu8WsvCZkX3PDRB9c2ro2NHDVeTD36mjZMVt1mvTSHFSZwaMpfiKmxOwzb68+fOUEPkSSSf+2CPPF06tMH7n36rlGz2uMMTR7b7d3J0VGXfJBOyj2kSygfN+dn0V55Vnn+0d00/l6xYobw6O8DPX5o8TpmMcXrsI8Pg6WHy+lOHJh2vT31K7Ro8TDsJM197TvXB5kP3keefAX260wHcFDXpfJYOtVerWpmbyFQsx9CkYT18/f2vaNe6ubk8T0QOHj6ObgNGorp/Fcx5a2qOPE7pyBbIaG5NEkJACAgBISAEhECJIPDqq69i8ODB6NChQ4kYL69+jnn6ZVrx743JE0dnOWZegWUTjpy60OSDk6w4aYpelp3IwzwRmDt3LurXr49BgwblqZ3Crnw9IlIp/RntGGU1Fj5XwpLd7xZ7F+IzKdrEgHee9tHhYp4AsIch9iT1+4/zsurK/CyedqF4lyz93wEfDnZ3c4NeT7/sORAx78kBLCkqBISAEBACQkAI5I7A7LnzUdWvMkYOG5xtAx7ubncoOtlWogLOTo7ZKmW2tCNlSi8B9nufU4WfabCyn53Cz+VYEdcUfv7MpkCnz17AqAkv4CodYH9lygTOtkn4sG56hZ8rcvs5Vfi5nuxjMQURISAEhIAQEAJCoEAJfPXxrAJtXxoXAsWRALsLLS6/+7LSXxx/Q2RMQkAICAEhIASEgBAQAkIgHwnISn8+wpSmhIAQEAJCQAiUNgLrNmwjt4UnrV7rmQmjlSmNVaaNH9ju/iM66MjCh3CbNa6vgiul956zeNkq5ZGEXRFmJOwOND4hgQ5HmryXZFSG81au3Yj/yJOKpTQg3+fs8tNSdpKLz5NnztNB3wcss9XBzO7kglHzEGT1UD4IgRJEQFb6S9CXJUMVAkJACAgBIVDYBHaRv/Mff1uhXCCyG0S+jOQiMbeSSEo/e1DhgEIcVIsDIX3w2Xd3NJeckkwuC5PvyNcyfvptOZ57JXuToaiomyraLrvrXPz7KpWOpMin6YUjBC+hIErp5bufluEcBUcSEQIlnYCs9Jf0b1DGLwSEgBAQAkKggAmwq8HP33/L3Av7D//0qx8oWu5a8oTijRnTJqMJBSha8uff+P6X31VgoSlPjUH7Ni2U28Fff18JPpw7Z/qL8KtcSbUz5uGhGNC3O94hH+esjLM7zWdoAtC2VXPlOtOO/PeXo0iqFy4F0cRgOhrWq4OtO/cqV4gPD78HPy1ZoYIhcUTepg3r43+ffE1lA3EvuUpkN4qajKJgXXw9OeVNxNHOAL/H1dAwvDH7YwqutIUCK9XHp++9qYrfoMnAyLFTaAchEZOfHK2CLGnt3IiMwudf/6h2DlqSL/h3p78Eby8P7bHchUCxJyAr/cX+K5IBCgEhIASEgBAoWgKnzlxAmx5D1DX93U9x5txF7Nh9AB/MmqYGNu+bnyhY0jW8Mv193NO/N2rXrI73PvmGAhSdovvXmPn68+CASs9Pm21+kTX/bAH7M+cVeI4yyi4R2af+KfJ00rdnZ+UjPfTadRVxl/t3d3dVpjff/bgU7Gz87l5d0aBeLYqm2wNz532nTIHen/mKqsdjyUq209jZreJXH81SPvv/oCivLGwy1I2inZb39gT7VeegT5pwJFh+53kfzFDeWOZ986P2SO5CoEQQkJX+EvE1ySCFgBAQAkJACBQdAQ5e9b8ZL6kBVPQpr/ycs3vMMRQYiYWDWrFNPAsHydKEV8ZZnn91Nin1ySoKampqqsoLodV2Xs1/cuzDGNivB66Fhat8DjjEQY84eqqljBk5VH3kyQRH2WXXi85OTurOEX5ffXsudu09hD49OqmdBsu66dMtmjXCz0v+woQppmBeUeT33N7OTgV+mjDmQdptaIaho57GpctXzFU3bd2tJiVPT31LTQ7Y/l9ECJQkAqL0l6RvS8YqlLgwXQAAQABJREFUBISAEBACQqAICHh5ulPE09bmnjlS6IEjx7Hn32UYN/k1pKamKUWdC+zZfwTHT57BDpoEaIdiVy35FidPn8OV4FA1QeBy/IzNezTRlH4XZ2cty+rOE4Q06sdSUlJSaNXfSOcMQvDJu6+rqLtPPPMqBt29DzwRyEzmf/uzmrgs+vI9tOhyj7nYRVLyj508S2ZE+1RbAdWrmp9xZFQ2+/nlu4+wet0mNdkwP5SEECgBBMS8pwR8STJEISAEhIAQEALFiUCn9q3UcNr1Hobr128gKPgqGpNN/7B778ZDY5/DrA/mk+19b7CizIp9Byo3fc4nymxGC4yk3bX30iFn0UXr162lFPT3P/0GlX0r4tWZH4IV/iYN66JrxzZasxne27Rshk3bdqP/sLHgXYzgkFAVyZc9CPH4+aAxnwuwDIx0/z39VFtN2vfHshVrVZ8ZNi6ZQqCYEtDRDJks40SEgBAQAkJACAiBkkTg1VdfxeDBg9GhQ4ciGTbb4BsMRrg4O1n1fzMmFg4ODlYuPTnPzdU1V1FErRpP94FNhXgM5co5IC0tDdyPt5dnulIZf+SyrhlEPOV2UqjdzKKvRpMpkGXE1YxbL/25c+fORf369TFo0KDS/7Kl5A3FvKeUfJHyGkJACAgBISAECpNAZkoxe+lJLxnlpS+Tm898lkATXpW3VeHnOpmNiduxXOHX2tfuovBrJORe0giIeU9J+8ZkvEJACAgBISAEhIAQEAJCIIcEROnPITApLgSEgBAQAkJACAgBISAEShoBUfpL2jcm4xUCQkAICAEhIASEgBAQAjkkIEp/DoFJcSEgBISAEBACQkAICAEhUNIIiNJf0r4xGa8QEAJCQAgIASEgBISAEMghAVH6cwhMigsBISAEhIAQEAJCQAgIgZJGQJT+kvaNyXiFgBAQAkJACAgBISAEhEAOCYjSn0NgUlwICAEhIASEgBAQAkJACJQ0AqL0l7RvTMYrBISAEBACQkAICAEhIARySECU/hwCk+JCQAgIASEgBISAEBACQqCkERClv6R9YzJeISAEhIAQEAJCQAgIASGQQwL2OSxfaorHxMZh1dqN+GfzDoRcvYbIqGiEX78BN1dXlPf2RAUfb7Ru0RT9+3RD8yYNS817y4sIgbwSWHNsBv4+Pj2vzZSI+p+NMJaIcRaHQaY9rSsOwyjwMegGTId+4FsF3o90IASEgBDIbwJlTum/EhKKdz/6En+v35why9i4OPAVeCUEB48cx9ff/4rq/n546omHMXzIwAzrSKYQEAJCQAgIASEgBISAECjOBMqMeU98fALe/t9n6Nr/wTsUfkfHcvD3q4yWzRujXp2a8PbytPrOeALwyvT3MWj4Ezh09ITVM/kgBISAEBACQkAICAEhIASKO4EysdIfdj0Coye+iNNnL5i/j9o1q2PQ3T3Ru3snNG5Q15yvJXi1f/P2PVi9bjPWbdiqsk+cPoeho57CezNexrD7+mtF5S4EhIAQEAJCQAgIASEgBIo1gVKv9LOizwo/K/4s5b298NLkcdma6rBt/6B+PdV17sJlvP3eZ9i+a79q46W3/oeg4KuY8vTj6rP8EAJCQAgIASEgBISAEBACxZlAqVb6Q6+F49GJU9UBXf4SOrVvhflz34a7m2uOvpM6tWrghy8/wJI/V+PNdz5GcnIKPvv6B3h4uGHsqOE5aksKCwEhkDUBBztnODl4wMneXd0d7d2QlBqHxNSbSEqJQWLKTSSnxWfdiDwtOQTcKkBXpUnuxpscB+PlfbmrK7WEgBAQAmWMQKlV+uMTEvH4pFfMCv/jox7A61OfztPXywd5G9Wvi5FPTFGHfWd/MB+1AqqjR5f2eWpXKguBskaAFfka5dvA37slfN3robxrdZR3qQFv1xooZ+eSLY6UtARExgfiRtxl3Ii/jPCYcwiKPIDLEXtpchCTbX0pUHwI2E1YAdTqmOsBGX59EsZtX+a6vlQUAkJACJQVAqVW6f/w829x6sx59T1279wOr73wVL58p00a1cMXH76tdhCMRiOmvv4Otq1dAhdnp3xpXxoRAqWVQJ2KXdHcfwgaVO6Lyh6N7njN+OQbuBp9DPHJkWo1P4mUd17VT6DLyYFW/e1p9Z/vtAvgWs4HPq41acJQ/452rt08iVPX/sXR4OU4c23jHc8lo5gR8KgExFzLleKu6/Y09He/jjRR+ovZlyrDEQJCoDgSKJVKP5v1LPhpmeLNXnk+f386dLr88yHNZkITxjyELxf8Qv79b+Ibcus5+cnHiuP3K2MSAkVKoKJbHXStOwltAh5Riro2mEsRu3Hh+k5cpOtazGlcjz0PXr3PqfCugI+bSfmvWaEDavl0RM0KHVHJoyG61X0GcckR2HfpJ2w/94XqJ6ftS/nCIED/b74ZCsPq6TnuTG9IhW7QTOg6jIFx18Ic15cKQkAI5A+B1NRU2NuXSpUyfwAVk1ZK5Tf0yZffm/G+OHk8XFyczZ/zKzFp3Cj89sdqFdTrmx9+A5sP5fSsQH6NRdoRAsWNgLdLdTzY+gs0qjJADY2V+j0Xv8fJ0HU4FfpPvg2XbfuvRh9X15Erf5jbrV+pFxpW7odmtLPQvd5kdZ24+jcW75+AqPgr5nKSKAYE8rAgY9j8Oez6vAx9v2lI2/09QLuvIkJACBQcgaioKAwdOhQvvPCC6iQtLQ3ffvsttm3bhkWLFhVcx9JyvhAodUp/YlISlq82KRWN6tfBYHLLWRDCE4lJ40dh5nufg2MArF63CQ8OHVQQXUmbQqBEEWjiNxiPdfgFbLcfHHUY/5x8DwcCFxfqO5y+tgF8LT/yElpWG44+DV9RE5DX+5/Agp3DceLq2kIdj3SWDYHcKusJUWQW9AV0vV+E7q6hMB4y7fBm05s8FgJCIJcEvLy8aG5txKhRo8iZiYeyooiIiMCYMWNy2aJUK0wCpU7p37BlJ5KSkhXD+wf3K1CW9w3sg1nvz1N/AKvXi9JfoLCpceOeH2gLf0FBd2Nb+85e0D/6PUB3kdsEavp0wIQufyEq4Qp+2P0I2dXTIc0iloNBS8BXs6r3YgTtPozr9Cc+3tgVl2+I15ci/mrypXvDP+/Drsdk6Ae8hTRR+vOFqTQiBLIi8MYbb2D06NG4dOmSKlanTh0899xzWVWRZ8WEQOlT+jfvNKPt07OzOV0QCY7cy1F8Dxw+hh27D4A9BsmB3oIgbWqTFX7j2S0F10EOWzZeOQxd3e45rFW6i3epazowP/ffDsXOjIYnIFdo52HGoEvo3eAlfLfzgdL9ZZSYtyObfuTBLCc2HMadC6DrMhG6Rv1gPLGuxLy5DFQIlEQCPXr0QOvWrREUFAQnJyc8+uijCAgIKImvUubGXOqU/qvXwtSXWLlSRVSrWqXAv9AObVsopZ87ukIBu+rVqVngfZbpDrz8YTc7qEgRGHd+C8PP44p0DMW1c/atz2IwphXLISYkR5N3oBvwcC74/zcUSwCldFCG9e/CrvN46PpOE6W/lH7H8lrFi8AzzzyDffv2wdnZWZn6FK/RyWgyI6DP7EFJzQ+/fkMN3Yci7xaGWE4sgq9eK4wupQ8hUGwJhMeeU2NjE5pKGbjTLMqBV3CrhfFdlsOlXHny63+2KIcifVsS4IO8ubXp19q5cRnGA7/Szls36Kq30nLlLgSEQAER4NX+SpUqoWvXrrLKX0CMC6LZUqf0R0ZFK07lC0np97fYTdB2GQrii5I2hUBJIBARd1ENM8CnHV7tfwwPtPocro4+RTp07n9Yy0/xev9TqFOxmxqLNjkp0oFJ5/lKwLhuDrVnhG7g9HxtVxoTAkIgYwIbNmzApGkv40RMBHZEhOB0bCSiU5IyLiy5xYJAqTPvcbB3UGDj4uMLBXBycoq5Hzu9nTktCSFQFglwZFwWdp9Zu2JndK3ztLrYXebBoKXkNedvxCSaTPAKkg/vMgSQ3/6W1R4wuw3loF+nQtejZfURstJfkPBz2raBTMGqtYTdvEzs+hNvwvDb0zDu/SnLlo0hx2D8bxV0TQdD59cE/Lkg5ExwBPRnzhRE0zlu88YN0852jitKBSGQQwLxaan4N+wy1ocFYm9kKK4mxuFKQsbRz5309qji5Ao/unpUrIaBlWuifXkxqcwh8gIpXuqUfk8Pd4Rdj8D1iMgCAZa+0fDwCHOWl5eHOS0JIVAWCbA/fhYOuPXLvieUwt+x9jileGs++0Oi/6NIuRsQQtF3r908paLwJqSYduhyw6y8awBqV+iEAJ/2dLVD9fJtrJphT0K7LnyHrWfnoV3N0UrpD4sV8x4rSEX4wbB0MnQ1Wmc6Al33Z6C/5x2kZaP0cwPGtbNNSj/57TcufDjTNvPyYNepIOw+MDcvTeRb3WvXxKQ032BKQxkSmHfhCFaFXsDaa5cyfJ5RZiIFzbsYH62uHTdCMOv0HviUc1bK/8PVGqCvb42MqkleIRAodUq/XxVfnL1wCdfCrxcCPsDSjp+j/4oIgbJMQDObqehWmw7MRmLtiVnqquzRiCLltlfmNc1VwCxr926paYmIT4mkCLo3EJcUgUSaBHD9hJQoSt+Ek4MHnB28yB7fW93ZZIfTHk53rh4lpcbgv+C/cDZsMy5G7FKBu7TvpKJbXZUMu3lay5J7ERMwHlsFvjITPdn7s8mOLVF3jZf2KA9fulYPAiteBcjWP79ldK+7MGbgW/ndrLQnBIolgRVXz+MfWuG3lM4+VdHKyxcdffzg6+hi+Uilz8VGqd0A3hE4Eh2u8iKSE/BD4Al1tfOujLlNu6ET1RcpXAKlTulvQS40t+zYq3z1b962G927tC9Qous2blPtOzqWQ8N6tQu0L2lcCJQEAhFxF1CBlH5LCb15AnzturAAP+4ZTaY/XeDtUo2U9sp0r45q3i3h790iQyXesh1O30y8qkyEQqL+w+nEfxFJK/lxSdcpPxSR8UE4H276m0xfjz9XdK+jynEkX5GSQcCw6RPY9bU96q5x/Rx1oJej9BoWTywZLymjFALFlMBTNZtje0QwxtZogkerN0Ib70rZjrR7BX88EdBElYtNTVH2/n+EnMWS4DOIIpv/PTQZ6Lz1Nwzzq4sPmnZFDRexksgWaj4VKHVKf4c2LfAxFio8q9dvLlCl//zFQJw6YzJn6Ni2JfT6UncuOp9+zfKxmRwyNq57B8bL+wE6b6Gr2R66XqbQ4fk4ImkqHYGI2It3mNikK5KlYp6+bH5+9nWvB80EKT/blbYKkABH3d0yj6LuTrUp6q7y00/2/LwzgJVvAOTHX0QICIHcEbjPrzau9h8PTwfHXDXgRucs+1Wqoa6vWvTGfDIXeuf0XgQnxmIZTQT4+qBJV7xQV7xu5QpwDiuVOi21TctmqFG9qsKw4u9/EUS+8wtKPv1qkbnpB4cONqclUYAEbHXtlxgDw7utYPjrNRiP/AkjReo0/DEVho+6FeDgpGkmEE52/WyO4+ZYoVgBsdc7wsvZn8ZnOmxcrAYng8mSgOGf94C0ZBV1N8uCtx4a1rwN2JWDvs9LthSXMkJACGRBILcKf0ZNPlWrOa70H4fX67czP556bCsG7Vounn/MRAouUeqUfkb1+MPDFLHU1FR8OG9BgdA7fuosVq7ZoNqu7u+HPj06FUg/0mg6AuzT2wYxLHkGxqCD0HV8AnYzL8HurdPQtRwO47mtMKx4xYYWpEhuCWgr6elNfHLbXn7Vq+husucXH/35RbQQ2+Gou7toB5e88uga3Z1tx8ZDv9Ps86yK0gvnwonZku2gpIAQKGUENoYHqVX76Sd3QbveO7Mfu25kv9g6s1FHHOk5Cv7O7orK6tCL6LZtKSKSE0sZpeL1OqXOvIfxPjRsML5Z9BuuhIRixep/cE//XuiRj7b9CYmJmPo6+4Q2yStTxG5UY1HgdxtX+o2HlkJXuzP0D39jHpJ+7G9Iu0pu/fb9Atz7rjlfEvlLQFtJ93GthUsRe3LdOEf3fbjdQtTz7YljISvVWYBcN0YVK7rVUdVF6c8LxaKrayA//HadxkHHnnlOrM16IEYDDOvehf6R76An7z+GNTOzLi9PhYAQyJbAwagwdaj3H3LbuSE8MMvy7vbllLvOXuSyc1DlWqjl6nlH+WaeFXC45yMYsvsvbKNzA3zot+OWX7G5ywPK5ecdFSQjzwRK5Uq/vb093n71tneQZ16cjguXgvIMS2vg5Tffw+mzF9RHPkNwd++u2iO5FzQBW1b6k+mQJl/VWtwxGl01shuMzL/fhTs6kAyzzTwfms2LdKg1Fnf5D1VeetoGPIoW1Uw7eLltUxuPuOvMLcHCq6er2gz6kV8D5Sw8g3DU3X0/Q1enK53P6ZDtYIy7aJc3Khi6Hs9at5NtTSkgBISAJYGvLh5F/X++R6tNP+OV49uzVfi5bkxqMv4izz+Tj25G7fUL0GnLb1gWfNayWZX2KeeErV2H44Gq9dTnMxTgq9vWpQhPSrijrGTknUCpVPoZC3vtGf/Yg4pQfEIiRo59DnzwNi9iMBjw8lvvYdW6jaqZShUrYN7cGXlpUurmmIAN5j2sKFRpRG4A/wZSLLYKE6JhPP2vOtB7R7c0STB8/0i2AYDuqCcZdxCIiL2g8irQSn9exGBMs6r+cNuFGN5qnnnF3uqhDR+0lf7rtwKI2VBFihQRAf2DX0BHq/q8Sm8pphV7cuHZ/3XL7EzThg0fAK4VoOs8PtMy8kAICIGMCbCZTgNS9ice3gBWxjXpXbE6Pm/eE7u6PYgzfcYgYuCTMA6ZgrABE3Gqz2PY0XUE3m3cGeyaU5Od5K//gb2r0HPbMlyMuzMuy5K2AzHSv4EqfjYuEn13/I5ECggmkr8ESq3Sz5jY7GZg3x6KGAfsGvbo09iz/0iuCMbExuHpF97C0uWkSJKU9/bCD199AC9PcTWVK6CZVIqMjETPnj2xZ09mZiHGTGpaZ+v7TgOun4dhbicY9/wA4/avkfa/1kD0VVIY3rQunBwHw7z+ahXRsGgUKf4/Wj8vo5/Gjx+PVatW5fjtE8lPfkzitTvcdua0od0XF+JI8J/kr/8G9lxapO5d6jyFNweexaPtfwQH5cqJsE0/u/Xk8YnkjsD+/fvxyCOP4OLFi7lrwIZaurp02L5WR1WSPfbAwfl2rbCzMB79C7rGA1TU3dsPMk4Zt30FkPcffe8XyYNXqbRmzfjFJVcI5JEAB+ViU5vTFso+K/JRg57CP52H4mk6kMtRduu6eaE8rdazVHR0Rn03b+W//+V6bbC7+0MIpkO7k2vf3nXfdD0ILWnHYPP1K3eM8Oc2/dGjQjWVf5hMfXiXQCR/CZRqpZ9Rffb+W8rGn9PRN2Pw0NjJGDHmWWj+9Tk/Kzlz7iLemP0R2vW831ynWtUq+P2HeahbOyCrqvIsFwTc3d1x6dIlPPTQQxg3blwWyn/WjevaPgL94JnqMK/hh9Hkr3sCOXgPhf6BT0hh6H+7clIsDJ/frQ746rpNAnzrwbDoUTVRuF2obKauX7+OJ554Av369cux8h8RdzHPSn9Saiy+3X4/Xv7TBz/teQxvrqyBxfvHIyzmDNrUeAQzBl3Ew20XoI4vKYk2iC8F5jIYUuDu5GtDaSmSGYH169ejf//+mDFjBi5cMO3qZFY2N/m6fhRUi8S4ns7d8Cp9F/rbtRDjLft8XX9yx5mdpCTAuOFDwNMPuvajsystz4WAECACU45uwaQjG80shpI//aC7x4EV+Zx68vFzcsPHzbor231t5Z999fegQ7u/BJ0y96El/mg/GAG3/PZ/fek/ZSKkPZN73gnojCR5b6b4t/DVwsX438e06mMhLs5O6NKxLdjNZ/MmDdCwfh1cCwvHydPncejoCazbsFUdBraognatm2P+3Jnw9srbCv/hw4ctm5W0BQFeXZ4zZw4SEhJQs2ZNdO7cGaNGjULPY7NgjLhI3nguW5TOJskmPf+tBOwdoWsygGx7XW9XYIX/s74wXtxFPsBfhH7Ie2pikPZxd+DaaegfXQRdu0dvl7+VMu78Foafx+HCoG8QV4V2D0qpnDlzBpMnT0ZoaCiqVq2KevXq4d5770W9XlH4+/j0LN+aV+JZMX9+mQtS0vLfNrNOxa7oVHsCWtcYqcbBgb/Wn3gH+y7/nOG4HOyc8OEw0zg4kNcv+8bhaPDyDMtaZo6tf8jyo6SJACv7y5cvh5OTE/z9/TFs2DA1Qa8xt3ae+eiqUbyTVw7QpHsRDL+MV563YOeAtFfJDTPZCGuin7yBAnB1R9qbZEKWXdRd8t5jNyeE7PuvIG0GmQ/QId+8iG7AdOglIm9eEErdYkzg0f1r8WPQSfMIF7TsizE1Gps/5zUxjc4EvHtmn7mZL+7qhYk1m5k/c4JX+Vts/EnlVSfvPpfvfsLquXzIPYEys985YcxDaHVXE3zw2bfYe8Bk4sO2/qzY85WduLu54ulxo8znBLIrn93zv/76C2zKInIngfDwcLi4uCA+Pl6tJMbExMDT0xM96d/3zMR4eR+MK1+H/qEvAZ+at4s5e4JX/e+QxJswfNqbAnftg67vK9DfO8dUxKMy7J7bjLSPe4B3CPSUm5Hiz4XXrV2H8/rjpnql8CefYUlJSVFvFhwcDP4eYmNjMaPXwGzf9rpm10+Rea9GH8u2fE4LnAvfCr5WHH0ZfRtOAx/0fbT9T7i/xUc4ELiYrt9w8fpOc7Oa+9CgyANqB2Jc5z+x6cxH+OPQ8+YyGSUWLVqUUXaZzgsLC4Ozs7OalPNK/4IFC9CtWzfUyAcqptV7IwxrZysl3/DvB9DfP5fs+8dTgK7PzT0Y174DXb2e0NNqv+HnbBQCy+BeLYbCeHCpuR1JCIGyRGDYnlV4qFp98Mp9RvLI/jX4+dbqe1VaoV/e/h60tiECb0ZtZZY3h0yEuM1H9q1FoiEVT9J5AUcKnmk5sbjLsyKm1WuLOWf2IjAhRk0SXqFdBpG8EygzK/2Miu3y/16/GZ98sRChYddzRO/egX0w/L7+6ECRd0UKlsAzzzyDefPmwcfHB7169cKUKVPQrl07GGgF3hh+Hnazrb3vsD9+wyc9yXY3GvCqCrsXdtChiyxUEFb4KUiX8cphFeVTP+T9O18o9jrSPuwMkA2xfvQP0LV52FxGW+nXP7dJrTaaH5SyxC+//IKJEyeqSNONGjXCyy+/rFb61xybke1Kf9uAURjV7gd8s/0+WlFfUShk2LtPh1pPoGHlfqq/yPhA7L30ozoPUMWjEcZ1Xo6f9o7BubAteLr7OjoQXBcHaXKwcNeDmY7vsxFlYiM00/dP/yAtLQ1t2rQB71Ty7s/IkSMxYcIE1KpVC2lP69IXz9ln37oqnobx8B8wfDPMVJfs+dUqPZnppL0RYLXab/fyfsC/OdJep7/1aFrJz0rcKsLunSu0g3cGabObZlUy22ey0p8tIilQDAnwoVy20Wd5q0F7TG9o7QHrS/LQwwo4S3kHJ+zvMRI1M3CzqQrkww/28d9r+zJzS//1ehRNPHzMn+PpEG+99QtV5F6fcs4IpNV+F7sys05t5pDfiTJBkFfy/1y1Hus3bs81P/b3zxeb9Qygw8HsGYht+0Xyl8DOnTvx66+/KuWSlcz27dtbd6DntffbYgw8QCv2vShaZyp0A2fAuPotpNHhXbspW4AKGZgbxEeq8krhv/s1svufdbsxy5RbBWpjK634d1deffRkBZfhjoFlnVKUZuVu2rRpCAgIUOYcQ4YMydHbcVReFh+3LLZnctRi9oUPBS0DX1W9mqF7vcnk4nM4+jV6TV03E6+qBtIMyeDzBnPWNseUXtvRsvoI/HH4eUQnZKM0Zt99mSgxc+ZMBAYG4rnnnsOkSZOUsp9fL64f8BY1pYNxFd9vCdvk02q/jv5Ode3H0IH82yaahrWzoB//p4q6a1h220WzVtXqzsG9dn+vdgw4uFe2fv6tKssHIVDyCcw4udv8Eh3K+5nTnLiaGGdW+Pnzn7TCb6nws//8Ndcu5cmbDvvtv9+vjrndnuS/nz0AaWcHxhxYh3000dCEFfzXG7RT44pITgBPSp6vI4uuGp/c3kv1Sj+v6n9Mq/rnLly+g49flUpo2qg+WjZvjMYN6kJvZ1ImY2LiEBkVhRuR0Th5hmz7jxy/w65fa2zsqOGYNH4UPD1MEeW0fLnnjQAfFOzbt+8djaRf6Tev8BvSoJ+8EboabWA88icM3z4AsJkOKe2oYKF0ksKf9mEX+j/ccehIwdAPnH5HH3dkZLDiX1ZW+nkC1rFjxzuQ2LLS7+FUGbPvvYpt5+ZjyYGn72ijsDJ49Z9Nf5r4Dc6wSz5v8OqKykhMuZnhc1npvxPLxo0blYet9E/ytNJPO3N2b1+A8eR65UnLqm1HN1rtp0lb/A2y4aeJPJkEKKGYHRxpG17+SJtGSgyZ8WQpWh/nt6udvizLZvFQVvqzgCOPiiWBy/E3EbDuOzW2Vl6V1Cq+5UAfP7geCy+bTFXnkSL+FHnm0eQbOkw7/tC/2sc83zdR4K3uFfzN7TxGyv6iwBPq8+I2A/Cgf33zM074rflaTUoaupfHid6jrZ7Jh5wTKJUr/Vt37sO7H32JU6S0W0rnDq1xH5npdOnQBhUrlLd8lGU6/PoNbN6+GyvXbsT2XbSlfEu++3EJfv9rLV6YNBYPD79Xy5Z7HglkpPCnbzIjhZ/L6JoPgf6JpUrxT/ugI+ymkl03K/6svNOqPSv8bM6jXAGmbzSjz7zi//x2ZerDfvxNU8OMCpa+vIwUflvfkl1jJqfG5dmDj639ZVZOW/1/qtsa1PTpQN5/JqAymfpU826JqPgg7Dj/daYKf2ZtlvV8dqmb36K/+1X649VD88xj1T4duDduIq9btDPH52tU0C0uQLtvhr/fJvO7H8kl5wswrHzDqtodHzi414HfoGv9EHTVW4F3CUWEQFkgYBkUa0q61fLz5DNfU/ibky29pcLPbGaeysx9du7IfXB2v5XS/36TrlgSfAYJtFvPfaVX+h+r3ljZ9p+MuaEi9vIYRXJPoNQp/azsf/29yW5NwzLqwSGYSAd5q1TOnas+niA8cN8AdbHbzyV//o353/6kXIBGRd9ULj3ZdOiDWdNyNJnQxif3HBCgAz/GoENkw08mPST6ZynYFq3wW4pS/B//1aT4k6mPmgSQJxCEnoT+HjoAyL6/cyJK8d+GNDo3wIq/rqHJZjwnTZTFsmxGowXEKur393Wvj/DYc8qGv6jHIv2nI+BZhUx3HoPx/DYYL9AkPQPhA712vZ5XXnPSyExH88Bj3PcLwKY/Pci8Z/3/AJogZCXGdfT3z0o/mwJ+MSirovJMCJQaAstCzprf5d4q1mavH569Pfn9tFkPczktEUQHaVn6+QbglfrW/9ZqZWy5P0XnBVhxv5Jg/TfKvv35jAFH+j0RE6HMiPpXCjA3ObJaA6X0cwZPXkTpN6PJVaLULFxGRt3Ew+Oet1L4O7ZriW1rf8OMaZNzrfCnp8qmPONGj8COdUsweeJj5sfbdu1Dv/sfw669B815kigAAsomvzf9o08mPc+S276Adhl2omsxTCn77JvfwCY9rPDf+y50/aZlWD7bTD4I+BydE/BrSiYI67ItLgUoNhrZ9ftQAC29zq5IcXD/Pq41ES6ReIv0e8isc32flwC7cjCyx57MhD3wbPsC8K5udaielX8D+/MnEyB9t+zNyIwhxyhS92py3zvQpuBemQ1H8oVASSFwIzkRu+kQL8uIqvXhZu9gHjpHvNW89XQjk5uuFaqan6VPVHZyUSv0bJqT3RVI5kRfUHAvFq2sB9n0Zybs/197/t2lY1bF+HCv5rd/Ex3+FckbgVKh9F8ODMagEU9YKdxvvvwMfvr6Q1Ql2/2CEBcXZ0x+8jH8u+JHNCL//iy86s8Tjy079hZEl9ImEyDPO6AAS/rJ5DmHtuizErPiz4VcffJ+ENe1vHLniarWPoWzGkNZfsaHeXWkcJd3Je8qRSjabgOv9IsUMwLkQ1/XeQJAHriMJ7KeTBvWzaED+8nQD3hTmQJpb6LMfeigrq7XCxSPI3PFwlyeDvuzaEHAtHy5C4HSSOBA1DXza/XxrW5Oc4IP50anJqm8+9LtAFgVzMGHPTdCMZrs9Nlkp/+OP20+/Nvv1ur+77QrwaY+ltKromncO26E3PHMspyksydQ4pV+VrQfe/olXA0NU2/L/vRZ2X9s5NDs3z4fStQKqIZVS77Fww/cY25tzFMvYfO22yflzQ8kkXcC5EpMTyvu2Sn8WkdK8R+7BIiLUF59sg3ko1XM7E6Kv777M5k9lXwLArzSz6L5yLd4VKjJiu4mn9Si9Bcqdps605PJDsgtp2HNrOzL07kc454fgIp1oKtlccCcgnYZ2LSHduN0HcZm2w7b8hvP0v9DyMzH6qB/tjWlgBAoeQQORpl0Ix55Cy9rE+d1YbednKQ3+8ntm/KOgCY+5ZzgZKObzXuq1NKqIf2KfkcfOqh/S47fjNCScs8FgRKt9KempuKJZ6aBV/pZKleqiD9//hJs1lPYMvP159WBXq3fic+/gWMnz2gf5Z5fBFwrQFetRY5a07V8gFz7/WGKyEk2/nlW/HPUe9ktXOyU/pjbdq1l91spRm9OJjm6nlOA8LMwHs0+OjKPXBdALnyTYmAMNpkOaG+jXHmSCZC+78t00Cf7o2pGNgkiUeW1RuQuBEohgSPR181v1TKd0r/nltlPXVdvsytNc+FcJmq4eOB0n8fAXoAO93rE5lb4zIAm+y12JzivEXnu0eRU7A0tKfdcECjRSv/UN97FQXKpyVKzRjVS+L8Ar7wXlXDEXlb+WZKTUzDhudcRcUOi7hbV92HZr+bVh2382Y8/rl+wfCzpAiBQXJR+XwrCxSIr/QXwJeehSbVjRoq/4e+ZyhNPdk2xf334NYFx63wy8zMdLjTXUR5+PlVB+XRtRpqzM0soP/1k388HiHmHQEQIlFYCbNPPUtPF845XPB1r0k+qu7jf8czWjGtJ8fj0/CFcJC9AmtRz81ZegCpQUC0WPrx7zuK5Vs7yzgd62Zc/C3sUspT67t7mj+djrZ+ZH0jCJgIlVun/9fdV+Ovvf9VLssK/5PtPUaliBZteuiALsZnPxMdN/+iwydHTU6cXZHfSdg4IWCn+5M5TFP8cwMtFUfbew6LZ1OeiiXypUsG9DlINSYhJvG3bmi8NSyO5J0AmPTo27WE3mvsX29SOjt16kk2/4d+5GZY3bPwIoGBe+v6v05aALsMylpmGNTTZoAPEstpvSUXSpY2AZrPv6WB93oXt5jXbeVa4cyOX6MBui40/YfLRzbiL7v/dvL2roLUXlZKEfjv+AAfYyk6qOZsmH5YTCK7jTWa9moQkWnv/0fLlbhuBEqn0h14Lx+y5tNpzS778eCZ8yt+eCWr5RXV/afJ49OvVVXW/98AR5d6zqMYi/VoTMCv+ceS3nxX/a6etC8infCNgIA9LrPgXtU0/r/Rfu3ky395LGso7AV2ncXS4vgLU4Vwt2FYWzbINv652Fxh3fkcxN8IzLql5+KlYF7pm92ZcxiLXeJDO+oSdUQeA7eYZYXnpH11kUVKSQqD4EDh+/DhGjRqFoCDbPNlEJZsO6nrYO1q9RBrFudCk4q0Vee2z5b0cuclmuV3a9JSV+d7bf1eBszjnJp2tGbhzObSdBc5LpsCZrPCzK05NLLrVssz3qs5uKq25CTU/oEQVJ1f1MYSiB4vknkCJVPpfmzkXcXHx6q1fn/o06tYKyD2BAqr57vQXUcHHNBH54LNvceacadWzgLorO83asIKXHQyl+I+h1cWYa0ibPzC74vI8DwTYxEczr8lDM7muyu46y7sGiLvOXBMsmIr6Pi+SlnAVyhbfhi44MBeL4Z/3sizN/vxZ9P3fyLKc9tDw4xgY/yaf/RYXH/rX1WitFZG7EChWBGJjY7Fu3Tr06tULs2fPRnCw6UxjdoO0S/dvp6XrzhRyfZuZsOLOYrl3xq4+7yZl/nycKQp2W+/Kqgwr68P2rFJp/jFi79/YGxlq/syJdMOweqaNMelWn5YPnW6d1UkxZD5Wy/KSzphA9ieeMq5XZLls0rPplmecDm1b4vFRDxTZWLLqmP35z35jKtn1m/6xeuG1d7Dyt2+yqiLPbCFAUTvzQ9ThXtBKX4Wa+dGctJEJAVb661fqDQ+nyuAovYUtvu71VJdhsWcLu2vpLxMCuk5PAF7+MPwxNZMS1tk6suPXNR5gMgOKuGT9MP2naJpI7PgGvJOga9AHxlP/pC9h9ZmDgaUPCGbX6kHSTDL//8zhw4fwzzHyFnRLdFlpMVqhXNxLWrv8ijkdc3h4OHx9fVU9rpvRpbWb0bPM8gqjTmH0we+Xvh9XV1d0794dS5cuxaxZs/Ddd99hzJgxGDt2LPz8/FR5yx9e5Uwr/LwSn16cybMOm/hczeHq+Yh9f2PPLWV+dPVG+L5VP9y/eyX+vHoOm64HYcrRLWDFfTl9ZmGzHd4x0CYJ6cehfdYCd3mm25Xg59r43S3iDGj15G47gRKn9H84f4F6O0fHcpg7m2w8i7H06dEJPbq0V5OU46fOKjee3emzSB4IZLACkNvWWPEXKVgClod5i0Lpr+BWR73gdfHRX7BftK2tkzKtv5ts7tkUhw/k2iC6W6v2HE3XFjFQkC+7jmPBZwCyU/ptaS99GTc3NzSv31xlG7OyVUhfMYefS2LbOR0zs2RFletldjG2zJ5lls91DLQinNnz9Pm56YPbyE293NRJ3xeb9jg7OyMhIQGXL1/GvHnz0LZt2wyVfu1w7M2UO5V+HzLruUKr8zkxmZlw6F/8dfW8eve+vjWUws8ffm7TH202/YLjZMrz8fmD6jn/YHv89Z3ux2Pku/98NpY52uRDM+UxN0IJ7UyAh4O1mZJlGUlnT6BEKf1r/92KwKAQ9VYj7h+Iyr4Vsn/DIi4x5enHzTsTX3//K0Tpz+MXQsG5DKun57GRPFanQEIithG4HntBFWS7/gvXd9hWKR9L+Wo++iUabz5SzX1TulYjlIcdIwfIokO32Ur5GuBYG8bjf4Oj6dokfDiY7PV1tGLP8TzYL39+Sp06dVHvbvIkJCIEioBAWlqaUvATExNRvXp13H///Rg3bhwaNWqU4Wi0w7Fn40yeeiwLNXb3UUp/+oOzlmUs07NP78XXl/5TWc09K+KPdoPNj3nX4K8O96qDvdqqPD9c03EIGli43DRXSJeIpjMCmmJfz8JbDxez9OZTk1yCiuSeQIlS+r9aSHbYt2TcaNqCLQHSpGE9dO3YBlt37sPu/YfBK/6NG5hcCJaA4RevITp7qoi8bH9bLISiiYpkTcBypT/rkgXzVAJzFQzXXLVKpgp6ts0n95qGTeRe0wZRtvm0O6D51behiipipNV+pfQPeAvGL++xtZqUEwLFnsCMGTPU6v6zzz6LiRMnokGDBlmOuZnn7cXRs7FRqOt2+9+tVt6+WBd2CdfJsw7b3mu2+Rk1uDE8CIsCT6hH7IuflXnXdKY2tVw9aVV/KB7ZvwbB5GWHJwXtypvs/TNq0zJvZahpgYjz2ntXsXyE4xZegRp7+Fg9kw85I1BilP6Dh4/hyDGTB44BfbujapVKOXvTIiz9yIj7lNLPQ+AzCaL05+7L0I/+Ccag/F21y91IqJarD3R+TXNdvaxUDIs5o161ikfGq1AFzcHPswkSUqIQnWDaISzo/qT9zAnomtKqYJXGMPJhXDLvyVY8/ciP/mggcD+M57ZlW9yyAO8KGI+tgq7pIPo7Jd/+tu4SWDYiaSFQDAm8/fbb6NKlC/r06WPT6JpYKMlHosOtlP7eFavjHVq9Z1kWfDZLpV/zqMP29qzwZ2SCw+2wkn+27xhO5kiWUv+a9K1UXUuq+7aI24eV00cVtiooH7IlUGKU/nUbb/9Pf8zDw7J9seJUoHf3TnB1dVEeh9Zv2o5pzz9ZnIZXcsbi5A5d3e4lZ7wyUiSnxeNA4K9oVf1BjGj9Bf46Mk0p4QWNhg8OD7lrLmpV6IydF74p6O6kfRsI6GnV3eRn/30bSpMHHvbwQx47DKtzt7NnJDNAXRNS+vuRbf/CkTb1KYWEQEkgYKvCz+/S5pZnHU6vDr2IYVVvWxr0qFgNrMSzL/9fr5zGe026cLEshU14GtpgrpNlI+ke8k6Ddk6gewV/+DmZXHdqxf4NC1RJ3mEIEPMeDUuu7iVG6d+5x2RH7e7milZ3NcnVyxZlpf69u2LZirW4HBiMsxcuFUs3o0XJR/ouvQR+3TcePq410bn2RLTwH4b9gYtxPGQ1zodvU5OC/HpzZwdP1PXtjsZ+A9Gy2gg4OXjg8JXfsezgs/nVhbSTSwK6+r3IhUdLOrw7j/zsX8++FTKd03WeAPCK/fHV2ZfPoATb8hvPbiEzHzpHsGKaCgSWQTHJEgKlmoAHRbllRXrz9SuwNKHRXnpMjcbq4C2v5H936RjGBmSuXz1VsznoeLRqS6tv693Szj99nXdP7zNnjQuw3kG/TAHADtMOBUsfX+sdAHMlSdhMoEQo/TdjYpUtPL9Vz24dbX654lSwF632s9LPsn3XflH6i9OXI2MpUAKJqTGY+2973OU/FF3qPIludZ9RF3caFHmQrgMIvHEAoTePU9TcMHWxSU5m4lLOG+6OvnB3qgQ/r6ao5t0K1cu3hp/n7X8srkQewprjb+No8PLMmpH8QiSg/OxTEC72rGOL6Hu/AFDUXsP6d9l1iy1VMizDHn90ddepswSGX8ZnWEYyhUBpJ3B3pQClqPNBWV5Rv6dKbfMrv1ivFT6/cBip5Kt/xqndGFW9oXKvqRWoTu42A2lCwDL/IgUbpSsvkt4s6FpSPD49f0g1yc+G+9ezav7HQJNZN2cO87N+ZlVQPthEoEQo/bv2mX4h+I06tLnLphcrboXatWpuHtLJ0ybfteYMSQiBMkCAV935cilXHs3970Ptil1RzasFOtYap668IGB3oFvPzcOJq2twPmwreKIhUjwI8NkXXb0eajB27+TgbAV74dn3c55ewnhyPc0sDyq//XYcBdhWCT5qa0kpJwSKPYGR1RrglePb1Tg/PnfISunfFH5FKfz8kFf7Pzt/GC/UbWV+p1frt8XEwxvMn/OaeLleG6smXjq2DVpwsFmNOsE+XYyM7y6bvHb5OrqgX6UaVnXlQ84JlAil/9gJ02FAfr3mTRrm/C2LQQ0vTw/Ur1sLp89ewIlTovQXg69EhlBEBOKTb2DXhQXq0obAq/V86Laiex14OfurVfxy9i7qsZFWoOKSIhCTxLsA1xCbdJ2uMBXsy7QzcI3OCURrTcm9mBEwRl1RLjThngPnC8Y0ipI7M1/ehFf4dffOAezK2dyeccNcm8tKQSFQ3Amw284HqtbD0uAzYHOZuNQU5XnnB/LGM5r851vK1GNbwYdle5K9P8uEms3QpUJVhCUlWBbLVbo2effRXIhyA7zDwGNgaeZREY+TqZGlLLx8HJdovCxja2RudmRZR9JZEygRSn9U1O1/0FlxLqlSt1aASemXlf58/Qq//WEJwsIjVJs1qvmhd4/OqFTRB598uQi9yBysScPbB5cy6pgDn5y7GIiqlX3h4uKcURHJK2ACbOLDl0gpJBAfCcN3ZFdfRKJs+z/rW0S9S7dCoHgQeKFOK/QiRZ6VeJbvL5/AmIO3Ff7X6rfD7NN71LNhe1bhQI+RqElKOksj8uffyF0l8+0HH8595sgmc3uLWvczpzmRSJGC3zy5S+W52Dng+botrZ7Lh9wRyDzWeO7aK5BakdGmmV55b68Cab+wGq3mX8Xc1dXQMHNaEnkj8MfKdVhP3p2uhV3Hx198j5Fjn1MNfkLpcxcuZdt4UnIy+g15DAeOHM+2rBQQAkJACAgBIVDSCLArTU3hX0Ar6JYK/9K2gzCrUUd819I0OY5MSUTHLb9hX+S1AnlN3nEYvGuFuW3u9y4K9mUp75zZqwKHcd4zte9CBYoeLJJ3AiVipT/6psk+18HeXgW4yvtrF00Lyckp5o55IlOFVpZF8ocARzqe/sqz2LBlJ8Y9+xouXApSDS9dvgazP5iPWgHVMe+D6Wolf+FPy/Dz0r/QvHEDjB/zINZt2KbKTp/zCVYs/oomENvx/c/LoNfbYczDQ3HvwN75M0hpRQgIASEgBIRAERL4ljz0jDv0j3kErPBrbjzZvOZUzA28f3Y/QpPi0HbzL1hACjl7+MkvYRv+/7d3FvBRXE8c/wEJBA1BUwjuElyDQ7DgTnB3C1D+JUBxaJFSaKG4WylW3LVYkOISKB6Ce7Ag/5kJe1yOCwRIiDDv87lbe/t295t7m3nzRrh9o0zIWeY9s56jD25j8OmAWYekZMvfl2YhtIQMgYgh9D8IEPpv3Lpt0uKGzOOHXSt37t4Lu4tHwisfPnoKv02ejY0ksHNOBGNAFS1aNPw8sBdadfaUAQFvT6TMzr+N+BEr126BR+8hmPnHCEyeuRCtm9bDzdt30LPvcAzy7IYX/v7w8ByKfHmcI1QyuEj459VHUgJKQAkogS8kMOnC0UBOuYsKVDIJ/EbTHKvfKWYcdD26TXa1OLQBCyiG//BsRZA3/if45RgNvl0uvXYO/U7uxslHAaa4vHt+fje4O2UKVJNnGartfTcL8ItzCcSxyPwb6ATd+CQCEULot7WNELf5aeBJ+NQScgTuP3gA77MXULp4YZQtXRQx7WJI41UqlJZ9CRPEx/PnL7D/0FEUypcLJYsWRBwaHCxbtQFs3sMleTJH7PEKiBTVoE5VvH79CkNGjsceyhFRu3pFqaNfSkAJKAEloAQiGoEJ54+g45EtpttmgZ+de62VLulyk7lNEpTYuUgOb7x5Cfzh+k1TZkUlxzTWTntv3wP/5xQi9Dx+OXfQFGufKyUkU52lBaugODkIW5aae1eanHfdnTKDIw9pCTkCEUKaHkha183bdofcU4dxS/Hjx0PhAnnC+C4i1+UN8x7LpzIfML6hpCKstf998hxc8fHFjt37ZVbAiYR9Lv6k2c/lnEXW9x04jGfPn8t6juz60hEQZl9u2QaYbemqEgCiuOlvQn8HSiA8EuAoOeZOswtJwx6UwG/c/yKyu7csbIvPn9jkWFvlu7Rih58gup0I8fa20XH3xTPcoc9tivTDycA23wrIpGveTvkkqTE5tytSxnrfM7ie12pT4i92Hp6ap6z5qboeAgQihNCfPUtGisBifUQaAgy0iW+EQBREQaXypXDo8AmUcGuAlORYPbx/T8SKGZOSpaUSE6B/d65AuxbuaNOtr1Dp0KohMqYPnlbjG8GIitn7fyuPqs/5CQSiVtLfxSfg0qpK4KsQGHPuELof22661p+k4a8bhIbfqNTx8BZTEi4W8EdmL45Zl09g373rUsXvlT8WkskPf4Jbiid0kgg81cwSgxnncqSeevvXSOIw3pc+dnxsLloLsaJFCBHVeIwIsYxC4QrfRIg71ZtUAiFIgJ3D48aJQ866UaTV16/f4OnTp+LoGyVKFDx99hy0gF2MADOhELy0NqUElIASUAJKINQJjD57EBx33yifI/BvLlobHPmHy567vphLGXLZxp9t7z9UHGztJNY/x/uv7JjWqmafz79JGXk5ko/X2wEFC/xbi9URv4IPta/HPo+ACv2fx03PUgJKQAkoASWgBJRAuCTAEXI4Uo5RrDnNGseMJTvvjvsvwK/N3iYGNpG2PZ+DdeddFtavPn0M32d+ksmXt1+TDjmuTXSUTOwULKffvTSIqEU5Aa49eyy3wAm6NhatCc6+qyV0CKjQHzpctVUloASUgBJQAkpACXx1AiO8D+B/J94J/HPzVUTDjzjEmgv88W1jkHlNbeShzLyhUY48uIW+FMln1fXzpuZ5NmBuvgqwp2trCT0CKvSHHlttWQkoASWgBJSAElACX43A+huXUGH3UtP15pAg3ShFQIAK006LFY+j2/Hrf4dkL5vlsD19bhL4t5Mz7tZbV9AqtXOImNuwedCg03ux7sbFQHfAYTk90mtwk0BQQmlDhf5QAqvNKgEloASUgBJQAkrgaxJIt346zj95IJcMjsDPTr7s7MuFBf7txevAOV4i2S64bYHJ1p6j7rg5phb7/LSx7eV4cL44bOdmGjiwf8Huu9cCncLXYbOj7PESBtqvG6FHIMyE/keP/fDbpNmoUbkcsmRKh4uXr2L+XyvRqmldJEn0ZT8A73MXsPjvdSZqiRI6UFbVskia+MvaNTUYjJW9FPJxxy4v9OraRsJDxrSzA98HZ4ctX6YY8uV2DkYrWkUJhA8CT54+w5oN27D9n31IlyYlqrq5UpbjFBLWdM2G7ZTT4DVKUVZkzodgXqbOXoSbtwKSsdjYREPO7Fnk929eJ7TXjT6XNXMG+PjeQDrKzux16Iipf4b29bV96wROnD6Lv1dvQrcOzSmClp31SsHYy7EoRo6bgur0jg8q0hZfa/X6rfI+DkaTWkUJREgCHCaz1M6/5N7bp8mJCblKf/A5ehzbITH0uVICEvjZgTaHfYDAz3b2JXcsxlm/e++14RgjNnLaJxbzn+/sYiOpXSw5n8/xITt/tvW/SutnH9/DKcrwa1kyxHZAl/S50CltLstDuh3KBKKGcvtBNs9CBAsEFy5dkTq+N27J9r17ASPUIE8MxoHLV32lrSu09L1+kzK1zvnqmXxfvXwFfkYu3T2HYfbCZbL+jKLC+L98Kev6pQQiCoH5f63AwJ9/Q6qUybFlxx609+hHgv4bDBg+DsN/+QPT5/6FKvXb4NWrV4EeaenK9diwZadkOt5/6Bjad/8R6ze/szUNVDmUNow+d/joSZSv0UwGKub9M5Quq81+hMClyz7ynn7+Nh/GR6oHeZidBydOX4BLVwJrEc1POH/xitQx36frSiCyEThtJmDXt8h0a/msPc0E/sSULGt78bomgZ/rJrOLA+9yzbCycDWUS5Iq0OnXn/th/c2LGO7thS5Ht4Lj65fdtQRND66H58ldEu5zhe9/7wn8bknTYK1LDWlXBf5ASL/aRrgMgspx1H8eOxnnL14WDX3fnh1w9959Saq0ct0W5MmZDT8N6IXN28kRhLajUXbb6pVcUaVimUDghvXvAYf49hgzfgYJ/rPx4oU/tpGmctKMBbhz955omFg7tO/AEfwxbZ5o5Ju610QT9xo4ePg4Js9ciGMnvdGkfnU0bVCLzn8hA4i/V29EcZcCOPvfBaxYOBm1GndECor57nXwKLJkTIexP/fD3fsPcOrMf6Id5bZ4JqO4S36cPHMORQrllQHBjLmLMY+EqZzZMqNN8/rInSOr1bY4c6wWJRCWBDiTcY5smdCycV24164iWtN79Bu3tbXFuBE/wob6YL3mXaUPpU7pFOhWXUsVBfdhP78ncHapRP3mIvK/TZJm3p9jRLeVPrdo+VpkI638wN5dwYnsrPUT7se/TphJydVi4iUNsN1rV0a0qFGxYPEq2FE2Zn53sAaZ+7fR58ZNmiX35TloFMqUcJH+yTus9fVNW/+x2lagB9ONECfA7+iJ9H5eumIdzRo5yG8ge9aMcKvTknJppMb+f4+hKL0/o9Lfmt//7Vs2pHdzTbmPOX8uR//hY+FWtgQ6t20i+1jhwzNUqVO8y/y5nN7fM+ctxaPHj9GxdWPUrFIuxJ9DG1QCYU3AhmNOB1E4qs9oypLLhSPlbC1WG5wMy1phB1v+PKVY+v/c8cGO2z44+vA2Tj68g3N+962dIvtiUox9ng3IHz8pcpF/gGvilEGG7QyyET0Q4gTCTNP/oScZPX4a2BRg5OAfcJ1mAHhKfsmK9di19yDGjxqIM2fPY/yUOeBY65xVNb59PDiTQGJZPAeORqfvB2L6vMVo06w+eBq4R9/hkqCpXs1KooG/dfsuPDyHUsz22GhUrzpG/jYVN8gcoR1pMvmfztB+3TFi7BSwELBy7Rb8uXQ1voeCGI8AABDCSURBVO/SWoT446fOyiX/JQ2i7/Vb6P+/zti6c69kD37w4JEIGy4F8yJzxrQoV7qoDAi8SeB5+Oix/CPif27DfuwhseE9eg+R+7PWluVz6bYS+NoEmjWshT1e/yJviWqi5WdzNTblGdynmwjdLTr1RppUTrAU+Pk+ue90o993k3bfSwZkNm+z1p9ZiJtGA+FeXVvLIH/uouVW+8lLminr3GsQnJI7Sr/iAQm/C+5Tn2OzOu5rzlkzSb/l6xt9rkWjOryJDiQoGv2TZyus9fWg2pIG9CvUCLBpJr/nRw3pLdcYP2WuLE97nxcTMn5vs+lmAgd7UZ4MGTnedC8PHz5Gu+buNOu0GKvIlIfNzvh93bt7Ozz285N6nGV70dI1NFCoIYobHiRYzk6ZGtQVJRDBCOQ3C6/JsfStFdbwczhPLglZw08mPUEJ/ObnsxBfljT+g7O64O9CVXG2XHO8qeEB34ptcLRMY2yjdtg8iD8nXJvgSdXO2FOiPsblLIUWqbKpwG8OMwzXw0zTb0tCPZcX/v6yfP78hSxZc1ilQml4DhotQkbZUkUQOxaNRHfsxdnzl9CxZ3/S0t/HKe//8J1jEhEiRg8N+AchDZh9ZcmcXrb2kSBw/eYtHDl+WrSNYybMMNXate+QDCzatmhAWX8zoDkJN/yPh6/hXquyDCYKF8hNMwReeE6a/pJFCqBuDTeZNWAB3Sh1qlcUW2UWhHgWIXr06HIovn1cuX8eQMQ209izbXShfLlQsmhBsCZ/2aoNND3tI+dYtmVcQ5dKIKwIZM2UHvu3LsPhYyfFPIeFpazUv9hOPnOGtOjYqhEJ2ZNx9MRpmhHIHOg2E5OPDgvhrMXlPsODb2v9+d79h3Chvsbaef5w6UyDdst+wgN9njXoQtpctuEe9ds00/W4/9WnfmtjY4PVpOE1L8nofcHFKXnArByvnzt/0Wpfz+WcRQY1QbXF52oJeQJJkyRCTJqpad7xB2mc/45GcS1ZRPy/xv4xE7WqVpDf0oo1m43DaEuzpRVJy8+zQDwQ5N9bscL55P8JD/KOn/oVttRexgxp8OOwsZR4L7r8jnjgRxNVWpRAhCeQl7TqBRwcxfn29/OHwfb2npkKyHM9IU19lyNbMe3ScdlmDf9OMunJGMfhi57bka7BHy0Rg8C7N+pXvt8EDvHlnyq/tNmxbslbx9uUZCaz+O+1GPtTXxGSW3X2ROUK+1EwX04xiZk/bYyYFrBTLNtpsoY+qNK4XjUx72E/gfVkVzy4j4dUHTOsD1KQlnDrzn0oUjC37GOnW9YGDSNH2wljBsu1t9M++3hxSZA5A7dyJfHkyVMxP2Bt/qZtuwJdlmcmPlT4H5B5yffWvOGKj6/MVvCAIAUJI1w+1pZ5O7quBL4Ggd4DR1H/eIJBnl1Rs2p50bbyjFWB0jXRngbMriVdROh/9ChAo2p+TzlJgG7ZuA6qkvnduk07ZKbOWn/2PncRsxYslVm0CVPniXBurZ8Uzh/QZ+csXA4ekPMAwCisNPhY8X+raOB6aVKlsNrXX796LaZLH2tLj385AR4IxosbRxra7XUIB4+cwL5Ni9G6ax+ZRTKuwNmzOVs2F2NpHOMlv5cz0QD02Mkz6NSmscyosrkXm1byIIALv8tnL1iGJXPGY+eeA2QiNkMGoXJQv5RAJCAwM2955N06T8xx+pB9/c/e+0WwP07mOM9eB/gThpTAHwlwfXOPEKbmPT/26iRamWoN2olWbpBnN9HQOSZJDM/Bv4AFfta+sy08CxpcsheqKAIH1wnKYs3SlC1xogSizefz2XSAzXlqN+2MZ8+egbWQ/X/ojD+mzydnXw/kdM4Kp++SitkCDz5KVm6IsqRhcitbkvwLXEkTmQdd/jdYHBO5vaCK+T1kz5LRNFgw6lcuX1raKuHWACvWbMLw/j3FN8E4rkslEJ4IdGnbFE/JMb10lcZo3aWPzHbxLJVH+2akaZ+KCrVaiHa+EAnhQRU2w+NygRw4rfXnyhVKiYkQX2MtDQ7Kk5mOtX4SkyK98OzeZnIonkj9lkvUKB9/lTklcxRFQ+M2PUholNNIsLex2tcDjur31yDA7/m6zbrIJxHNiHIp6Fobt8n0kpUirygy1IcKDQXksNfBI3Ct1kT8QSq4lpDIcBwJjn9Pp2lmmAtHimPFEvthrdu0XfZdv3lblvqlBCIDgSxxE5DJTl2Kqx9XHufhyxc4cP+GSeDnhFteJd2/WMMfGVh9i88QZiE7DdhsT3nj5h0kTZIwkNDL+1mTyI645oVtd1n7/iWF7Tq52MV4l/mNNfF+pMl3IMdBo/C0Lzt7GddjzRBrjHgAwFPMN2/fEY2RUf9DS54liEHTyex0bF74eeLGiUOOaUENYcxr67oSCFsC/HuNFTOmCMvGnTyliFRsZ/+hWTejruXSWn++feee9EPzvmLeT7iv/kr9jxUCsWLFRAsyBZkzaZTYeFu2b7nNfZrN9NiExLxY9nXzY7r+dQnw+5n/Hp8TxpNnfczNKPnO2T+DzSyNwm3z/xbzfcYxXSqByERg2bVz2HXnmkTRyeuQBCUSOaEMOdRq+XYJhLnQH5HQs5Dfb8gYHKLp5+TfOaJPz/YUhSRHRHoEvVclECkIcNSr2fMpAgsJeey469m9PfnRfNy0J1I8vD6EElACSkAJKIHPIKBC/2dA01OUgBJQAkpACSgBJaAElEBEIhBmjrwRCZLeqxJQAkpACbwjwDlM7j94aNqRKGECtGhU27T9qStsIjZm/HTTaZxrgX2prIViNlUK4RW27ecQoRwViv3AtCgBJaAEIhsBFfoj219Un0cJKAElEMoEOP49+11lp1CsXNhO/ksKZ03mDO15c2VH8mRJwdmTf6fEWrs3LIJj0sRf0nSwz31DDsPse8UZfrUoASWgBCIjARX6I+NfVZ9JCSgBJRDKBMqVLgbPHu1NV/G9fhMTps2XqDicl4EzNUelMEk8K2CeZdnOLvp72dWNRjiJIudm4QRdjdv2xOWrvuD8DZxRnYMocHz+77u0gs+1G3SteRLuuFSxghhE4ZivURLHKbP+xNqN2yUBY5um9SmXS2LMJN8P3l8gbw6cOn0O40cPxEIatPj4XMelqz6IbhsdQygJIzsOH6dwn5x5nTMAv6JMz0ZZu2SGPMfCJSslvOjwAd9LzH/OI1Egb06JOsdR4LQoASWgBMIzgY/HuQvPd6/3pgSUgBJQAmFCgDXz+UvVkM/KtZvxDwnqHO1s0pghEop5KWVRt5Zl2Vo2ZuMBeIDQlUIi9xk8WjKZs3nPyHFTKNqSHUYM+p8I3psoc/OkmQskERyHfV5BmdI52eG4ibNw9PgZ/Dq8Lw4dPo7xU+dQTogLGDzid7jXrizR2jjBI0dvYoH/wOFjZMrTVO55PjmGc1QoPu7v/1JyunQiMx/eTkSmPpx0jpPPDe7bXfJHdO89FBxliI+fpgzx7EyuRQkoASUQ3gmopj+8/4X0/pSAElAC4ZBAedL0N6hbVe4sfZqUEvJ43qIVaOvRV/bdp/CunAXdMssy50NhYdk8u7rxeGlSOSFdmlS4cOkKfG/cosRZr2UAwcd37PaSamcpiduGLf+gA2WBruBaXD58oOsPQyRvRJFCeWlfCcyYtxicSZpDeHZu04Ri9Z/HomVrpA3+KlWskJzLA5NblBPAvHCSr4E/jZOBx0RK1jiLZgu4dKccL88oezyHBn35diaAc6ykT5vK/HRdVwJKQAmESwIq9IfLP4velBJQAkogfBNIQUmuihXOZ7rJ7p7DJPnZrIkjkLtYwGAgY/o072VZtpaN2WikbKmiYt6TKkUydOjRH/fvPxI7f7b1b0eZnxctW03JGgvgwL/HsHf/v1KXZwY4Ay8PLvbsPwy38qWw98BhFMqXC9koMSIL6OyDcOnKNeMysowaNWCi2zK770vyVejUc4AkkeP8D3x+rhxZ5ZxVi6bi1JlzuEozBUbmdM5boUUJhGcC6zfvpAH4qUC32JlmuSzzlQSq8JENdnrn/CmN61dHiuTfYdX6rTTTdhplSriA+7hleULJHX3IBC9d6pRW8xIdOnwC+6lft21e3/JU3Q5BAmreE4IwtSkloASUwLdCwBCajeflnCVbd+5FxdotxfnW59p1WMuybC0bs6XgnShhQGZetrnv2LoRmfBsRp7iVXGSBG6202fb/3M0W1C8ojs5FL+WfClcjyMKuZStg5dkotOuZQPkyJZZhIghoyZgHw0EuASVvdnI0nyDovjs2L1fhP2ajTrApVxdmjFIB7dyJVGYMgUPGD4WCRzsKQ+wJlQ0/va6DN8E9tAAec6ff4uPDPvJ8Icd17+kcK4UNvH7Z89BaWbyjAWyfeKUt9Vm2Tm/fI1mYhZnrcKJ02dFQWDtmO4LOQIapz/kWGpLSkAJKIFvmgBnuo1NWZLNsykzkKCyLBvZzj8GjaMDPfbzEydao+4birJz685dJEmU0NglS3b8NTKrX7rsgwVLVqEczSDs8jpIYUFn4PieNZLJOdBJwdzg54sTO7ZVTWUwm9BqSuCrExhApmpeB49gzV/TTNdmH5aJJKgvXbGOZugcMLB3V4rGlVFM4GbOX0L9OBY8OjRHofy533Niz5Y5gwyG/f39ZeZtkGdXOLtUElM6j/bNkMs5q/jdHDvpLYPlvj07iHM8m9hVdSuDYf16vOfgz2Z2I8h/Jwf58Xifu4BudO2GdQJmDE03rStfTEA1/V+MUBtQAkpACSgBJhAvbpz3BH7ez5p7y4FAcAV+Pj9q1CiBBH7ex7MDlgI/7zcEfl5P4ZQMT54+RadeA7F81UYM8uz22QI/t8fPx/eiRQlENAIscBuO9zwIYMGao2SNGtJbHoXNddj85ocBI1G1oiv51qQk5/UpVp3YjWdn/xmeRThG2n02wYsbJ7YcWr5mIzJnSIeenVth+py/wFr8Fo3qyLEOLRtadfDng2xKV7e6m5jm/TRmktTXr5AloDb9IctTW1MCSkAJKIFwQoAFdBb0+aNFCXzLBDjfxc8DewmCxJRML2GC+GLT37zjD7LPxsYGu/cdkvV2LdxNqDhfBhdzJ3aOcMUlS8b0WLFmMzh6F5v3+azeKPtdCuTBT2Mm4sXbeo8e+yGZYxI55kT2/5NmLHzPwX/OwuVyT9UqudJ5/li9YZvU16+QJaBCf8jy1NaUgBJQAkpACSgBJRCuCMS3jxvI8Z7D4x48cgL7Ni1G6659JBqVEYVq34EjYNv8XTQIaNk4QENv7sRuaxsgOtraRENRcuZfsHgVJo8diuUk9LPZXb+hY9C6aT3kyJ4ZHK2L9xmFTYKsOfg72MeDra2tUU2XoURAzXtCCaw2qwSUgBJQAkpACSiB8EiATXO4FCTn9NsUsvaKjy+ykU1/7WoV4N6yG9j5vTpp3TkSj6UTu+l5yMQuX25n2cyRPSA7N5vdcYQtNs8ZRm1wuU7hd52SOYomv3GbHlYd/KXi2y81oDOnEbLr6sgbsjy1NSWgBJSAElACSkAJhHsCnGCOneQ5G7V5YYd11rqbh/T8VCd2c4d6o22+FifHM9q15uBv1NVl6BBQoT90uGqrSkAJKAEloASUgBJQAkog3BBQ855w86fQG1ECSkAJKAEloASUgBJQAqFDQIX+0OGqrSoBJaAElIASUAJKQAkogXBDQIX+cPOn0BtRAkpACSgBJaAElIASUAKhQ0CF/tDhqq0qASWgBJSAElACSkAJKIFwQ+D/cBfXnv4WXwMAAAAASUVORK5CYII=;" vertex="1" parent="1">
          <mxGeometry x="39" y="226" width="765" height="309" as="geometry" />
        </mxCell>
      </root>
    </mxGraphModel>
  </diagram>
</mxfile>
